  0
SECTION
  2
HEADER
  9
$ACADVER
  1
AC1015
  9
$ACADMAINTVER
 70
     6
  9
$DWGCODEPAGE
  3
ANSI_1252
  9
$INSBASE
 10
0.0
 20
0.0
 30
0.0
  9
$EXTMIN
 10
0.0
 20
0.0
 30
0.0
  9
$EXTMAX
 10
17.0
 20
11.0
 30
0.0
  9
$LIMMIN
 10
0.0
 20
0.0
  9
$LIMMAX
 10
17.0
 20
11.0
  9
$ORTHOMODE
 70
     0
  9
$REGENMODE
 70
     1
  9
$FILLMODE
 70
     1
  9
$QTEXTMODE
 70
     0
  9
$MIRRTEXT
 70
     1
  9
$LTSCALE
 40
1.0
  9
$ATTMODE
 70
     1
  9
$TEXTSIZE
 40
0.125
  9
$TRACEWID
 40
0.05
  9
$TEXTSTYLE
  7
Standard
  9
$CLAYER
  8
0
  9
$CELTYPE
  6
ByLayer
  9
$CECOLOR
 62
   256
  9
$CELTSCALE
 40
1.0
  9
$DISPSILH
 70
     0
  9
$DIMSCALE
 40
1.0
  9
$DIMASZ
 40
0.13
  9
$DIMEXO
 40
0.05
  9
$DIMDLI
 40
0.38
  9
$DIMRND
 40
0.0
  9
$DIMDLE
 40
0.0
  9
$DIMEXE
 40
0.125
  9
$DIMTP
 40
0.0
  9
$DIMTM
 40
0.0
  9
$DIMTXT
 40
0.125
  9
$DIMCEN
 40
0.09
  9
$DIMTSZ
 40
0.0
  9
$DIMTOL
 70
     0
  9
$DIMLIM
 70
     0
  9
$DIMTIH
 70
     1
  9
$DIMTOH
 70
     1
  9
$DIMSE1
 70
     0
  9
$DIMSE2
 70
     0
  9
$DIMTAD
 70
     0
  9
$DIMZIN
 70
     1
  9
$DIMBLK
  1

  9
$DIMASO
 70
     1
  9
$DIMSHO
 70
     1
  9
$DIMPOST
  1

  9
$DIMAPOST
  1

  9
$DIMALT
 70
     0
  9
$DIMALTD
 70
     2
  9
$DIMALTF
 40
25.4
  9
$DIMLFAC
 40
0.5
  9
$DIMTOFL
 70
     0
  9
$DIMTVP
 40
0.0
  9
$DIMTIX
 70
     0
  9
$DIMSOXD
 70
     0
  9
$DIMSAH
 70
     0
  9
$DIMBLK1
  1

  9
$DIMBLK2
  1

  9
$DIMSTYLE
  2
Standard
  9
$DIMCLRD
 70
     0
  9
$DIMCLRE
 70
     0
  9
$DIMCLRT
 70
     0
  9
$DIMTFAC
 40
1.0
  9
$DIMGAP
 40
0.06
  9
$DIMJUST
 70
     0
  9
$DIMSD1
 70
     0
  9
$DIMSD2
 70
     0
  9
$DIMTOLJ
 70
     1
  9
$DIMTZIN
 70
     1
  9
$DIMALTZ
 70
     0
  9
$DIMALTTZ
 70
     0
  9
$DIMUPT
 70
     0
  9
$DIMDEC
 70
     2
  9
$DIMTDEC
 70
     2
  9
$DIMALTU
 70
     2
  9
$DIMALTTD
 70
     2
  9
$DIMTXSTY
  7
Standard
  9
$DIMAUNIT
 70
     0
  9
$DIMADEC
 70
     2
  9
$DIMALTRND
 40
0.0
  9
$DIMAZIN
 70
     0
  9
$DIMDSEP
 70
    46
  9
$DIMATFIT
 70
     3
  9
$DIMFRAC
 70
     0
  9
$DIMLDRBLK
  1

  9
$DIMLUNIT
 70
     2
  9
$DIMLWD
 70
    -2
  9
$DIMLWE
 70
    -2
  9
$DIMTMOVE
 70
     0
  9
$LUNITS
 70
     2
  9
$LUPREC
 70
     4
  9
$SKETCHINC
 40
0.1
  9
$FILLETRAD
 40
0.5
  9
$AUNITS
 70
     0
  9
$AUPREC
 70
     2
  9
$MENU
  1
.
  9
$ELEVATION
 40
0.0
  9
$PELEVATION
 40
0.0
  9
$THICKNESS
 40
0.0
  9
$LIMCHECK
 70
     0
  9
$CHAMFERA
 40
0.0
  9
$CHAMFERB
 40
0.0
  9
$CHAMFERC
 40
0.0
  9
$CHAMFERD
 40
0.0
  9
$SKPOLY
 70
     0
  9
$TDCREATE
 40
2458690.904445579
  9
$TDUCREATE
 40
2458691.071112245
  9
$TDUPDATE
 40
2458690.904450648
  9
$TDUUPDATE
 40
2458691.071117315
  9
$TDINDWG
 40
0.0000000116
  9
$TDUSRTIMER
 40
0.0000000116
  9
$USRTIMER
 70
     1
  9
$ANGBASE
 50
0.0
  9
$ANGDIR
 70
     0
  9
$PDMODE
 70
     0
  9
$PDSIZE
 40
-1.0
  9
$PLINEWID
 40
0.0
  9
$SPLFRAME
 70
     0
  9
$SPLINETYPE
 70
     6
  9
$SPLINESEGS
 70
     8
  9
$HANDSEED
  5
1F4
  9
$SURFTAB1
 70
     6
  9
$SURFTAB2
 70
     6
  9
$SURFTYPE
 70
     6
  9
$SURFU
 70
     6
  9
$SURFV
 70
     6
  9
$UCSBASE
  2

  9
$UCSNAME
  2

  9
$UCSORG
 10
0.0
 20
0.0
 30
0.0
  9
$UCSXDIR
 10
1.0
 20
0.0
 30
0.0
  9
$UCSYDIR
 10
0.0
 20
1.0
 30
0.0
  9
$UCSORTHOREF
  2

  9
$UCSORTHOVIEW
 70
     0
  9
$UCSORGTOP
 10
0.0
 20
0.0
 30
0.0
  9
$UCSORGBOTTOM
 10
0.0
 20
0.0
 30
0.0
  9
$UCSORGLEFT
 10
0.0
 20
0.0
 30
0.0
  9
$UCSORGRIGHT
 10
0.0
 20
0.0
 30
0.0
  9
$UCSORGFRONT
 10
0.0
 20
0.0
 30
0.0
  9
$UCSORGBACK
 10
0.0
 20
0.0
 30
0.0
  9
$PUCSBASE
  2

  9
$PUCSNAME
  2

  9
$PUCSORG
 10
0.0
 20
0.0
 30
0.0
  9
$PUCSXDIR
 10
1.0
 20
0.0
 30
0.0
  9
$PUCSYDIR
 10
0.0
 20
1.0
 30
0.0
  9
$PUCSORTHOREF
  2

  9
$PUCSORTHOVIEW
 70
     0
  9
$PUCSORGTOP
 10
0.0
 20
0.0
 30
0.0
  9
$PUCSORGBOTTOM
 10
0.0
 20
0.0
 30
0.0
  9
$PUCSORGLEFT
 10
0.0
 20
0.0
 30
0.0
  9
$PUCSORGRIGHT
 10
0.0
 20
0.0
 30
0.0
  9
$PUCSORGFRONT
 10
0.0
 20
0.0
 30
0.0
  9
$PUCSORGBACK
 10
0.0
 20
0.0
 30
0.0
  9
$USERI1
 70
     0
  9
$USERI2
 70
     0
  9
$USERI3
 70
     0
  9
$USERI4
 70
     0
  9
$USERI5
 70
     0
  9
$USERR1
 40
0.0
  9
$USERR2
 40
0.0
  9
$USERR3
 40
0.0
  9
$USERR4
 40
0.0
  9
$USERR5
 40
0.0
  9
$WORLDVIEW
 70
     1
  9
$SHADEDGE
 70
     3
  9
$SHADEDIF
 70
    70
  9
$TILEMODE
 70
     1
  9
$MAXACTVP
 70
    64
  9
$PINSBASE
 10
0.0
 20
0.0
 30
0.0
  9
$PLIMCHECK
 70
     0
  9
$PEXTMIN
 10
1.0000000000E+20
 20
1.0000000000E+20
 30
1.0000000000E+20
  9
$PEXTMAX
 10
-1.0000000000E+20
 20
-1.0000000000E+20
 30
-1.0000000000E+20
  9
$PLIMMIN
 10
0.0
 20
0.0
  9
$PLIMMAX
 10
12.0
 20
9.0
  9
$UNITMODE
 70
     0
  9
$VISRETAIN
 70
     1
  9
$PLINEGEN
 70
     0
  9
$PSLTSCALE
 70
     1
  9
$TREEDEPTH
 70
  3020
  9
$CMLSTYLE
  2
Standard
  9
$CMLJUST
 70
     0
  9
$CMLSCALE
 40
1.0
  9
$PROXYGRAPHICS
 70
     1
  9
$MEASUREMENT
 70
     0
  9
$CELWEIGHT
370
    -1
  9
$ENDCAPS
280
     0
  9
$JOINSTYLE
280
     0
  9
$LWDISPLAY
290
     1
  9
$INSUNITS
 70
     1
  9
$HYPERLINKBASE
  1

  9
$STYLESHEET
  1

  9
$XEDIT
290
     1
  9
$CEPSNTYPE
380
     0
  9
$PSTYLEMODE
290
     1
  9
$FINGERPRINTGUID
  2
{6D6D46A3-8F98-4854-9A08-EC4A3E02DC40}
  9
$VERSIONGUID
  2
{FAEB1C32-E019-11D5-929B-00C0DF256EC4}
  9
$EXTNAMES
290
     1
  9
$PSVPSCALE
 40
0.0
  9
$OLESTARTUP
290
     0
  0
ENDSEC
  0
SECTION
  2
CLASSES
  0
CLASS
  1
ACDBDICTIONARYWDFLT
  2
AcDbDictionaryWithDefault
  3
ObjectDBX Classes
 90
        0
280
     0
281
     0
  0
CLASS
  1
VISUALSTYLE
  2
AcDbVisualStyle
  3
ObjectDBX Classes
 90
     4095
280
     0
281
     0
  0
CLASS
  1
MATERIAL
  2
AcDbMaterial
  3
ObjectDBX Classes
 90
     1153
280
     0
281
     0
  0
CLASS
  1
SCALE
  2
AcDbScale
  3
ObjectDBX Classes
 90
     1153
280
     0
281
     0
  0
CLASS
  1
TABLESTYLE
  2
AcDbTableStyle
  3
ObjectDBX Classes
 90
     4095
280
     0
281
     0
  0
CLASS
  1
MLEADERSTYLE
  2
AcDbMLeaderStyle
  3
ACDB_MLEADERSTYLE_CLASS
 90
     4095
280
     0
281
     0
  0
CLASS
  1
SUN
  2
AcDbSun
  3
SCENEOE
 90
     1153
280
     0
281
     0
  0
CLASS
  1
ACDBPLACEHOLDER
  2
AcDbPlaceHolder
  3
ObjectDBX Classes
 90
        0
280
     0
281
     0
  0
CLASS
  1
LAYOUT
  2
AcDbLayout
  3
ObjectDBX Classes
 90
        0
280
     0
281
     0
  0
ENDSEC
  0
SECTION
  2
TABLES
  0
TABLE
  2
VPORT
  5
8
330
0
100
AcDbSymbolTable
 70
     1
  0
VPORT
  5
29
330
8
100
AcDbSymbolTableRecord
100
AcDbViewportTableRecord
  2
*Active
 70
     0
 10
0.0
 20
0.0
 11
1.0
 21
1.0
 12
8.5
 22
5.5
 13
0.0
 23
0.0
 14
0.5
 24
0.5
 15
0.5
 25
0.5
 16
0.0
 26
0.0
 36
1.0
 17
0.0
 27
0.0
 37
0.0
 40
11.0
 41
1.5454545455
 42
50.0
 43
0.0
 44
0.0
 50
0.0
 51
0.0
 71
     0
 72
  2000
 73
     1
 74
     3
 75
     0
 76
     0
 77
     0
 78
     0
281
     0
 65
     1
110
0.0
120
0.0
130
0.0
111
1.0
121
0.0
131
0.0
112
0.0
122
1.0
132
0.0
 79
     0
146
0.0
  0
ENDTAB
  0
TABLE
  2
LTYPE
  5
5
330
0
100
AcDbSymbolTable
 70
     6
  0
LTYPE
  5
14
330
5
100
AcDbSymbolTableRecord
100
AcDbLinetypeTableRecord
  2
ByBlock
 70
     0
  3

 72
    65
 73
     0
 40
0.0
  0
LTYPE
  5
15
330
5
100
AcDbSymbolTableRecord
100
AcDbLinetypeTableRecord
  2
ByLayer
 70
     0
  3

 72
    65
 73
     0
 40
0.0
  0
LTYPE
  5
16
330
5
100
AcDbSymbolTableRecord
100
AcDbLinetypeTableRecord
  2
Continuous
 70
     0
  3
Solid line
 72
    65
 73
     0
 40
0.0
  0
LTYPE
  5
6E
330
5
100
AcDbSymbolTableRecord
100
AcDbLinetypeTableRecord
  2
HIDDEN
 70
     0
  3
Hidden __ __ __ __ __ __ __ __ __ __ __ __ __ __
 72
    65
 73
     2
 40
0.075
 49
0.05
 74
     0
 49
-0.025
 74
     0
  0
LTYPE
  5
6F
330
5
100
AcDbSymbolTableRecord
100
AcDbLinetypeTableRecord
  2
PHANTOM
 70
     0
  3
Phantom ______  __  __  ______  __  __  ______
 72
    65
 73
     6
 40
0.5
 49
0.25
 74
     0
 49
-0.05
 74
     0
 49
0.05
 74
     0
 49
-0.05
 74
     0
 49
0.05
 74
     0
 49
-0.05
 74
     0
  0
LTYPE
  5
70
330
5
100
AcDbSymbolTableRecord
100
AcDbLinetypeTableRecord
  2
CENTER
 70
     0
  3
Center ____ _ ____ _ ____ _ ____ _ ____ _ ____
 72
    65
 73
     4
 40
0.4
 49
0.25
 74
     0
 49
-0.05
 74
     0
 49
0.05
 74
     0
 49
-0.05
 74
     0
  0
LTYPE
  5
71
330
5
100
AcDbSymbolTableRecord
100
AcDbLinetypeTableRecord
  2
CENTERX2
 70
     0
  3
Center (2x) ________  __  ________  __  _____
 72
    65
 73
     4
 40
0.8
 49
0.5
 74
     0
 49
-0.1
 74
     0
 49
0.1
 74
     0
 49
-0.1
 74
     0
  0
LTYPE
  5
72
330
5
100
AcDbSymbolTableRecord
100
AcDbLinetypeTableRecord
  2
DOT2
 70
     0
  3
Dot (.5x) ........................................
 72
    65
 73
     2
 40
0.025
 49
0.0
 74
     0
 49
-0.025
 74
     0
  0
ENDTAB
  0
TABLE
  2
LAYER
  5
2
330
0
100
AcDbSymbolTable
 70
     2
  0
LAYER
  5
10
330
2
100
AcDbSymbolTableRecord
100
AcDbLayerTableRecord
  2
0
 70
     0
 62
     7
  6
Continuous
370
    -3
390
F
  0
LAYER
  5
73
330
2
100
AcDbSymbolTableRecord
100
AcDbLayerTableRecord
  2
FORMAT
 70
     0
 62
     7
  6
Continuous
370
    -3
390
F
  0
ENDTAB
  0
TABLE
  2
STYLE
  5
3
330
0
100
AcDbSymbolTable
 70
     4
  0
STYLE
  5
11
330
3
100
AcDbSymbolTableRecord
100
AcDbTextStyleTableRecord
  2
Standard
 70
     0
 40
0.0
 41
1.0
 50
0.0
 71
     0
 42
0.125
  3
txt
  4

  0
STYLE
  5
9E
330
3
100
AcDbSymbolTableRecord
100
AcDbTextStyleTableRecord
  2
SLDTEXTSTYLE0
 70
     0
 40
0.0
 41
0.75
 50
0.0
 71
     0
 42
0.125
  3
TXT
  4

  0
STYLE
  5
AE
330
3
100
AcDbSymbolTableRecord
100
AcDbTextStyleTableRecord
  2
SLDTEXTSTYLE1
 70
     0
 40
0.0
 41
0.6875
 50
0.0
 71
     0
 42
0.125
  3
TXT
  4

  0
STYLE
  5
B5
330
3
100
AcDbSymbolTableRecord
100
AcDbTextStyleTableRecord
  2
SLDTEXTSTYLE2
 70
     0
 40
0.0
 41
0.6944444444
 50
0.0
 71
     0
 42
0.125
  3
TXT
  4

  0
ENDTAB
  0
TABLE
  2
VIEW
  5
6
330
0
100
AcDbSymbolTable
 70
     0
  0
ENDTAB
  0
TABLE
  2
UCS
  5
7
330
0
100
AcDbSymbolTable
 70
     0
  0
ENDTAB
  0
TABLE
  2
APPID
  5
9
330
0
100
AcDbSymbolTable
 70
     1
  0
APPID
  5
12
330
9
100
AcDbSymbolTableRecord
100
AcDbRegAppTableRecord
  2
ACAD
 70
     0
  0
ENDTAB
  0
TABLE
  2
DIMSTYLE
  5
A
330
0
100
AcDbSymbolTable
 70
     3
100
AcDbDimStyleTable
  0
DIMSTYLE
105
27
330
A
100
AcDbSymbolTableRecord
100
AcDbDimStyleTableRecord
  2
Standard
 70
     0
178
     0
340
11
  0
DIMSTYLE
105
FA
102
{ACAD_REACTORS
330
F9
330
105
330
12C
102
}
330
A
100
AcDbSymbolTableRecord
100
AcDbDimStyleTableRecord
  2
SLDDIMSTYLE0
 70
     0
 41
0.13
 44
0.0
 45
0.000000001
 78
    12
 79
     3
140
0.125
144
0.5
147
0.03125
173
     1
178
     0
271
     2
272
     2
276
     2
284
    12
340
9E
  0
DIMSTYLE
105
1B9
102
{ACAD_REACTORS
330
1B8
102
}
330
A
100
AcDbSymbolTableRecord
100
AcDbDimStyleTableRecord
  2
SLDDIMSTYLE1
 70
     0
 41
0.13
 44
0.0
 45
0.000000001
 78
    12
 79
     3
140
0.125
141
0.0
144
0.5
147
0.03125
173
     1
178
     0
271
     3
272
     2
276
     2
284
    12
340
9E
  0
ENDTAB
  0
TABLE
  2
BLOCK_RECORD
  5
1
330
0
100
AcDbSymbolTable
 70
    16
  0
BLOCK_RECORD
  5
1F
330
1
100
AcDbSymbolTableRecord
100
AcDbBlockTableRecord
  2
*Model_Space
340
22
  0
BLOCK_RECORD
  5
1B
330
1
100
AcDbSymbolTableRecord
100
AcDbBlockTableRecord
  2
*Paper_Space
340
1E
  0
BLOCK_RECORD
  5
23
330
1
100
AcDbSymbolTableRecord
100
AcDbBlockTableRecord
  2
*Paper_Space0
340
26
  0
BLOCK_RECORD
  5
C4
330
1
100
AcDbSymbolTableRecord
100
AcDbBlockTableRecord
  2
SW_NOTE_0
340
0
102
{BLKREFS
331
C9
102
}
  0
BLOCK_RECORD
  5
CA
330
1
100
AcDbSymbolTableRecord
100
AcDbBlockTableRecord
  2
SW_NOTE_1
340
0
102
{BLKREFS
331
DB
102
}
  0
BLOCK_RECORD
  5
DD
330
1
100
AcDbSymbolTableRecord
100
AcDbBlockTableRecord
  2
SW_NOTE_2
340
0
102
{BLKREFS
331
E7
102
}
  0
BLOCK_RECORD
  5
FB
330
1
100
AcDbSymbolTableRecord
100
AcDbBlockTableRecord
  2
_D
340
0
  0
BLOCK_RECORD
  5
106
330
1
100
AcDbSymbolTableRecord
100
AcDbBlockTableRecord
  2
_D_1
340
0
  0
BLOCK_RECORD
  5
12D
330
1
100
AcDbSymbolTableRecord
100
AcDbBlockTableRecord
  2
_D_2
340
0
  0
BLOCK_RECORD
  5
137
330
1
100
AcDbSymbolTableRecord
100
AcDbBlockTableRecord
  2
SW_CENTERMARKSYMBOL_0
340
0
102
{BLKREFS
331
142
102
}
  0
BLOCK_RECORD
  5
143
330
1
100
AcDbSymbolTableRecord
100
AcDbBlockTableRecord
  2
SW_CENTERMARKSYMBOL_1
340
0
102
{BLKREFS
331
14E
102
}
  0
BLOCK_RECORD
  5
14F
330
1
100
AcDbSymbolTableRecord
100
AcDbBlockTableRecord
  2
SW_CENTERMARKSYMBOL_2
340
0
102
{BLKREFS
331
15A
102
}
  0
BLOCK_RECORD
  5
15B
330
1
100
AcDbSymbolTableRecord
100
AcDbBlockTableRecord
  2
SW_CENTERMARKSYMBOL_3
340
0
102
{BLKREFS
331
166
102
}
  0
BLOCK_RECORD
  5
1BA
330
1
100
AcDbSymbolTableRecord
100
AcDbBlockTableRecord
  2
_D_3
340
0
  0
BLOCK_RECORD
  5
1C4
330
1
100
AcDbSymbolTableRecord
100
AcDbBlockTableRecord
  2
SW_CENTERMARKSYMBOL_4
340
0
102
{BLKREFS
331
1CF
102
}
  0
BLOCK_RECORD
  5
1D0
330
1
100
AcDbSymbolTableRecord
100
AcDbBlockTableRecord
  2
SW_CENTERMARKSYMBOL_5
340
0
102
{BLKREFS
331
1DB
102
}
  0
BLOCK_RECORD
  5
1DC
330
1
100
AcDbSymbolTableRecord
100
AcDbBlockTableRecord
  2
SW_CENTERMARKSYMBOL_6
340
0
102
{BLKREFS
331
1E7
102
}
  0
BLOCK_RECORD
  5
1E8
330
1
100
AcDbSymbolTableRecord
100
AcDbBlockTableRecord
  2
SW_CENTERMARKSYMBOL_7
340
0
102
{BLKREFS
331
1F3
102
}
  0
ENDTAB
  0
ENDSEC
  0
SECTION
  2
BLOCKS
  0
BLOCK
  5
20
330
1F
100
AcDbEntity
  8
0
100
AcDbBlockBegin
  2
*Model_Space
 70
     0
 10
0.0
 20
0.0
 30
0.0
  3
*Model_Space
  1

  0
ENDBLK
  5
21
330
1F
100
AcDbEntity
  8
0
100
AcDbBlockEnd
  0
BLOCK
  5
1C
330
1B
100
AcDbEntity
 67
     1
  8
0
100
AcDbBlockBegin
  2
*Paper_Space
 70
     0
 10
0.0
 20
0.0
 30
0.0
  3
*Paper_Space
  1

  0
ENDBLK
  5
1D
330
1B
100
AcDbEntity
 67
     1
  8
0
100
AcDbBlockEnd
  0
BLOCK
  5
24
330
23
100
AcDbEntity
  8
0
100
AcDbBlockBegin
  2
*Paper_Space0
 70
     0
 10
0.0
 20
0.0
 30
0.0
  3
*Paper_Space0
  1

  0
ENDBLK
  5
25
330
23
100
AcDbEntity
  8
0
100
AcDbBlockEnd
  0
BLOCK
  5
C5
330
C4
100
AcDbEntity
  8
0
100
AcDbBlockBegin
  2
SW_NOTE_0
 70
     0
 10
0.0
 20
0.0
 30
0.0
  3
SW_NOTE_0
  1

  0
MTEXT
  5
C7
330
C4
100
AcDbEntity
  8
0
  6
Continuous
 62
     0
370
     0
100
AcDbMText
 10
0.0
 20
0.0773440644
 30
0.0
 40
0.06
 41
0.0
 71
     1
 72
     1
  1
INTERPRET GEOMETRIC
  7
SLDTEXTSTYLE0
 73
     1
 44
1.0
  0
MTEXT
  5
C8
330
C4
100
AcDbEntity
  8
0
  6
Continuous
 62
     0
370
     0
100
AcDbMText
 10
0.0
 20
-0.0220260102
 30
0.0
 40
0.06
 41
0.0
 71
     1
 72
     1
  1
TOLERANCING PER:
  7
SLDTEXTSTYLE0
 73
     1
 44
1.0
  0
ENDBLK
  5
C6
330
C4
100
AcDbEntity
  8
0
100
AcDbBlockEnd
  0
BLOCK
  5
CB
330
CA
100
AcDbEntity
  8
0
100
AcDbBlockBegin
  2
SW_NOTE_1
 70
     0
 10
0.0
 20
0.0
 30
0.0
  3
SW_NOTE_1
  1

  0
MTEXT
  5
CD
330
CA
100
AcDbEntity
  8
0
  6
Continuous
 62
     0
370
     0
100
AcDbMText
 10
0.0
 20
0.0837894031
 30
0.0
 40
0.065
 41
0.0
 71
     1
 72
     1
  1
DIMENSIONS ARE IN INCHES
  7
SLDTEXTSTYLE0
 73
     1
 44
1.0
  0
MTEXT
  5
CE
330
CA
100
AcDbEntity
  8
0
  6
Continuous
 62
     0
370
     0
100
AcDbMText
 10
0.0
 20
-0.0205806729
 30
0.0
 40
0.065
 41
0.0
 71
     1
 72
     1
  1
TOLERANCES:
  7
SLDTEXTSTYLE0
 73
     1
 44
1.0
  0
MTEXT
  5
CF
330
CA
100
AcDbEntity
  8
0
  6
Continuous
 62
     0
370
     0
100
AcDbMText
 10
0.0
 20
-0.1249507489
 30
0.0
 40
0.065
 41
0.0
 71
     1
 72
     1
  1
FRACTIONAL
  7
SLDTEXTSTYLE0
 73
     1
 44
1.0
  0
MTEXT
  5
D0
330
CA
100
AcDbEntity
  8
0
  6
Continuous
 62
     0
370
     0
100
AcDbMText
 10
0.5175850508
 20
-0.1249507489
 30
0.0
 40
0.065
 41
0.0
 71
     1
 72
     1
  1
%%p
  7
SLDTEXTSTYLE0
 73
     1
 44
1.0
  0
MTEXT
  5
D1
330
CA
100
AcDbEntity
  8
0
  6
Continuous
 62
     0
370
     0
100
AcDbMText
 10
0.5794975789
 20
-0.1249507489
 30
0.0
 40
0.065
 41
0.0
 71
     1
 72
     1
  1
0.05
  7
SLDTEXTSTYLE0
 73
     1
 44
1.0
  0
MTEXT
  5
D2
330
CA
100
AcDbEntity
  8
0
  6
Continuous
 62
     0
370
     0
100
AcDbMText
 10
0.0
 20
-0.2293208248
 30
0.0
 40
0.065
 41
0.0
 71
     1
 72
     1
  1
ANGULAR: BEND
  7
SLDTEXTSTYLE0
 73
     1
 44
1.0
  0
MTEXT
  5
D3
330
CA
100
AcDbEntity
  8
0
  6
Continuous
 62
     0
370
     0
100
AcDbMText
 10
0.6972491653
 20
-0.2293208248
 30
0.0
 40
0.065
 41
0.0
 71
     1
 72
     1
  1
%%p
  7
SLDTEXTSTYLE0
 73
     1
 44
1.0
  0
MTEXT
  5
D4
330
CA
100
AcDbEntity
  8
0
  6
Continuous
 62
     0
370
     0
100
AcDbMText
 10
0.7591616568
 20
-0.2293208248
 30
0.0
 40
0.065
 41
0.0
 71
     1
 72
     1
  1
1
  7
SLDTEXTSTYLE0
 73
     1
 44
1.0
  0
MTEXT
  5
D5
330
CA
100
AcDbEntity
  8
0
  6
Continuous
 62
     0
370
     0
100
AcDbMText
 10
0.0
 20
-0.3336909008
 30
0.0
 40
0.065
 41
0.0
 71
     1
 72
     1
  1
ONE PLACE DECIMAL
  7
SLDTEXTSTYLE0
 73
     1
 44
1.0
  0
MTEXT
  5
D6
330
CA
100
AcDbEntity
  8
0
  6
Continuous
 62
     0
370
     0
100
AcDbMText
 10
0.9680034842
 20
-0.3336909008
 30
0.0
 40
0.065
 41
0.0
 71
     1
 72
     1
  1
%%p
  7
SLDTEXTSTYLE0
 73
     1
 44
1.0
  0
MTEXT
  5
D7
330
CA
100
AcDbEntity
  8
0
  6
Continuous
 62
     0
370
     0
100
AcDbMText
 10
1.0299159757
 20
-0.3336909008
 30
0.0
 40
0.065
 41
0.0
 71
     1
 72
     1
  1
0.05
  7
SLDTEXTSTYLE0
 73
     1
 44
1.0
  0
MTEXT
  5
D8
330
CA
100
AcDbEntity
  8
0
  6
Continuous
 62
     0
370
     0
100
AcDbMText
 10
0.0
 20
-0.4380609768
 30
0.0
 40
0.065
 41
0.0
 71
     1
 72
     1
  1
TWO PLACE DECIMAL
  7
SLDTEXTSTYLE0
 73
     1
 44
1.0
  0
MTEXT
  5
D9
330
CA
100
AcDbEntity
  8
0
  6
Continuous
 62
     0
370
     0
100
AcDbMText
 10
0.931407127
 20
-0.4380609768
 30
0.0
 40
0.065
 41
0.0
 71
     1
 72
     1
  1
%%p
  7
SLDTEXTSTYLE0
 73
     1
 44
1.0
  0
MTEXT
  5
DA
330
CA
100
AcDbEntity
  8
0
  6
Continuous
 62
     0
370
     0
100
AcDbMText
 10
0.9933196184
 20
-0.4380609768
 30
0.0
 40
0.065
 41
0.0
 71
     1
 72
     1
  1
0.005
  7
SLDTEXTSTYLE0
 73
     1
 44
1.0
  0
ENDBLK
  5
CC
330
CA
100
AcDbEntity
  8
0
100
AcDbBlockEnd
  0
BLOCK
  5
DE
330
DD
100
AcDbEntity
  8
0
100
AcDbBlockBegin
  2
SW_NOTE_2
 70
     0
 10
0.0
 20
0.0
 30
0.0
  3
SW_NOTE_2
  1

  0
MTEXT
  5
E0
330
DD
100
AcDbEntity
  8
0
  6
Continuous
 62
     0
370
     0
100
AcDbMText
 10
0.0
 20
0.0773440644
 30
0.0
 40
0.06
 41
0.0
 71
     1
 72
     1
  1
THE INFORMATION CONTAINED IN THIS
  7
SLDTEXTSTYLE0
 73
     1
 44
1.0
  0
MTEXT
  5
E1
330
DD
100
AcDbEntity
  8
0
  6
Continuous
 62
     0
370
     0
100
AcDbMText
 10
0.0
 20
-0.0220260102
 30
0.0
 40
0.06
 41
0.0
 71
     1
 72
     1
  1
DRAWING IS THE SOLE PROPERTY OF
  7
SLDTEXTSTYLE0
 73
     1
 44
1.0
  0
MTEXT
  5
E2
330
DD
100
AcDbEntity
  8
0
  6
Continuous
 62
     0
370
     0
100
AcDbMText
 10
0.0
 20
-0.1213960848
 30
0.0
 40
0.06
 41
0.0
 71
     1
 72
     1
  1
GRAND VALLEY STATE UNIVERSITY.  ANY
  7
SLDTEXTSTYLE0
 73
     1
 44
1.0
  0
MTEXT
  5
E3
330
DD
100
AcDbEntity
  8
0
  6
Continuous
 62
     0
370
     0
100
AcDbMText
 10
0.0
 20
-0.2207661593
 30
0.0
 40
0.06
 41
0.0
 71
     1
 72
     1
  1
REPRODUCTION IN PART OR AS A WHOLE
  7
SLDTEXTSTYLE0
 73
     1
 44
1.0
  0
MTEXT
  5
E4
330
DD
100
AcDbEntity
  8
0
  6
Continuous
 62
     0
370
     0
100
AcDbMText
 10
0.0
 20
-0.3201362339
 30
0.0
 40
0.06
 41
0.0
 71
     1
 72
     1
  1
WITHOUT THE WRITTEN PERMISSION OF
  7
SLDTEXTSTYLE0
 73
     1
 44
1.0
  0
MTEXT
  5
E5
330
DD
100
AcDbEntity
  8
0
  6
Continuous
 62
     0
370
     0
100
AcDbMText
 10
0.0
 20
-0.4195063085
 30
0.0
 40
0.06
 41
0.0
 71
     1
 72
     1
  1
GRAND VALLEY STATE UNIVERSITY IS
  7
SLDTEXTSTYLE0
 73
     1
 44
1.0
  0
MTEXT
  5
E6
330
DD
100
AcDbEntity
  8
0
  6
Continuous
 62
     0
370
     0
100
AcDbMText
 10
0.0
 20
-0.518876383
 30
0.0
 40
0.06
 41
0.0
 71
     1
 72
     1
  1
PROHIBITED.
  7
SLDTEXTSTYLE0
 73
     1
 44
1.0
  0
ENDBLK
  5
DF
330
DD
100
AcDbEntity
  8
0
100
AcDbBlockEnd
  0
BLOCK
  5
FC
330
FB
100
AcDbEntity
  8
0
100
AcDbBlockBegin
  2
_D
 70
     0
 10
0.0
 20
0.0
 30
0.0
  3
_D
  1

  0
SOLID
  5
FE
330
FB
100
AcDbEntity
  8
0
  6
Continuous
 62
     7
370
    18
100
AcDbTrace
 10
2.1622779442
 20
4.9761591339
 30
0.0
 11
2.2922779442
 21
4.9561591339
 31
0.0
 12
2.2922779442
 22
4.9961591339
 32
0.0
 13
2.2922779442
 23
4.9961591339
 33
0.0
  0
SOLID
  5
FF
330
FB
100
AcDbEntity
  8
0
  6
Continuous
 62
     7
370
    18
100
AcDbTrace
 10
7.5166086528
 20
4.9761591339
 30
0.0
 11
7.3866086528
 21
4.9961591339
 31
0.0
 12
7.3866086528
 22
4.9561591339
 32
0.0
 13
7.3866086528
 23
4.9561591339
 33
0.0
  0
LINE
  5
100
330
FB
100
AcDbEntity
  8
0
  6
Continuous
 62
     7
370
    18
100
AcDbLine
 10
2.1622779442
 20
5.3198599213
 30
0.0
 11
2.1622779442
 21
4.8511591339
 31
0.0
  0
LINE
  5
101
330
FB
100
AcDbEntity
  8
0
  6
Continuous
 62
     7
370
    18
100
AcDbLine
 10
7.5166086528
 20
5.3198599213
 30
0.0
 11
7.5166086528
 21
4.8511591339
 31
0.0
  0
LINE
  5
102
330
FB
100
AcDbEntity
  8
0
  6
Continuous
 62
     7
370
    18
100
AcDbLine
 10
2.1622779442
 20
4.9761591339
 30
0.0
 11
4.677811349
 21
4.9761591339
 31
0.0
  0
LINE
  5
103
330
FB
100
AcDbEntity
  8
0
  6
Continuous
 62
     7
370
    18
100
AcDbLine
 10
7.5166086528
 20
4.9761591339
 30
0.0
 11
5.001075248
 21
4.9761591339
 31
0.0
  0
MTEXT
  5
104
330
FB
100
AcDbEntity
  8
0
  6
Continuous
 62
     7
370
    18
100
AcDbMText
 10
4.677811349
 20
5.0380738621
 30
0.0
 40
0.125
 41
0.0
 71
     1
 72
     1
  1
2.68
  7
SLDTEXTSTYLE0
 73
     1
 44
1.0
  0
ENDBLK
  5
FD
330
FB
100
AcDbEntity
  8
0
100
AcDbBlockEnd
  0
BLOCK
  5
107
330
106
100
AcDbEntity
  8
0
100
AcDbBlockBegin
  2
_D_1
 70
     0
 10
0.0
 20
0.0
 30
0.0
  3
_D_1
  1

  0
SOLID
  5
109
330
106
100
AcDbEntity
  8
0
  6
Continuous
 62
     7
370
    18
100
AcDbTrace
 10
7.9103094402
 20
5.3698599213
 30
0.0
 11
7.9303094402
 21
5.4998599213
 31
0.0
 12
7.8903094402
 22
5.4998599213
 32
0.0
 13
7.8903094402
 23
5.4998599213
 33
0.0
  0
SOLID
  5
10A
330
106
100
AcDbEntity
  8
0
  6
Continuous
 62
     7
370
    18
100
AcDbTrace
 10
7.9103094402
 20
6.3934819685
 30
0.0
 11
7.8903094402
 21
6.2634819685
 31
0.0
 12
7.9303094402
 22
6.2634819685
 32
0.0
 13
7.9303094402
 23
6.2634819685
 33
0.0
  0
LINE
  5
10B
330
106
100
AcDbEntity
  8
0
  6
Continuous
 62
     7
370
    18
100
AcDbLine
 10
7.5666086528
 20
5.3698599213
 30
0.0
 11
8.0353094402
 21
5.3698599213
 31
0.0
  0
LINE
  5
10C
330
106
100
AcDbEntity
  8
0
  6
Continuous
 62
     7
370
    18
100
AcDbLine
 10
7.4091283379
 20
6.3934819685
 30
0.0
 11
8.0353094402
 21
6.3934819685
 31
0.0
  0
LINE
  5
10D
330
106
100
AcDbEntity
  8
0
  6
Continuous
 62
     7
370
    18
100
AcDbLine
 10
7.9103094402
 20
5.3698599213
 30
0.0
 11
7.9103094402
 21
5.7824521919
 31
0.0
  0
LINE
  5
10E
330
106
100
AcDbEntity
  8
0
  6
Continuous
 62
     7
370
    18
100
AcDbLine
 10
7.9103094402
 20
6.3934819685
 30
0.0
 11
7.9103094402
 21
5.9808896979
 31
0.0
  0
MTEXT
  5
10F
330
106
100
AcDbEntity
  8
0
  6
Continuous
 62
     7
370
    18
100
AcDbMText
 10
7.7948580556
 20
5.9435856732
 30
0.0
 40
0.125
 41
0.0
 71
     1
 72
     1
  1
.51
  7
SLDTEXTSTYLE0
 73
     1
 44
1.0
  0
ENDBLK
  5
108
330
106
100
AcDbEntity
  8
0
100
AcDbBlockEnd
  0
BLOCK
  5
12E
330
12D
100
AcDbEntity
  8
0
100
AcDbBlockBegin
  2
_D_2
 70
     0
 10
0.0
 20
0.0
 30
0.0
  3
_D_2
  1

  0
SOLID
  5
130
330
12D
100
AcDbEntity
  8
0
  6
Continuous
 62
     7
370
    18
100
AcDbTrace
 10
7.9103094402
 20
10.3312142966
 30
0.0
 11
7.8903094402
 21
10.2012142966
 31
0.0
 12
7.9303094402
 22
10.2012142966
 32
0.0
 13
7.9303094402
 23
10.2012142966
 33
0.0
  0
SOLID
  5
131
330
12D
100
AcDbEntity
  8
0
  6
Continuous
 62
     7
370
    18
100
AcDbTrace
 10
7.9103094402
 20
6.945387525
 30
0.0
 11
7.9303094402
 21
7.075387525
 31
0.0
 12
7.8903094402
 22
7.075387525
 32
0.0
 13
7.8903094402
 23
7.075387525
 33
0.0
  0
LINE
  5
132
330
12D
100
AcDbEntity
  8
0
  6
Continuous
 62
     7
370
    18
100
AcDbLine
 10
7.4091283379
 20
10.3312142966
 30
0.0
 11
8.0353094402
 21
10.3312142966
 31
0.0
  0
LINE
  5
133
330
12D
100
AcDbEntity
  8
0
  6
Continuous
 62
     7
370
    18
100
AcDbLine
 10
7.4091283379
 20
6.945387525
 30
0.0
 11
8.0353094402
 21
6.945387525
 31
0.0
  0
LINE
  5
134
330
12D
100
AcDbEntity
  8
0
  6
Continuous
 62
     7
370
    18
100
AcDbLine
 10
7.9103094402
 20
10.3312142966
 30
0.0
 11
7.9103094402
 21
8.7375196638
 31
0.0
  0
LINE
  5
135
330
12D
100
AcDbEntity
  8
0
  6
Continuous
 62
     7
370
    18
100
AcDbLine
 10
7.9103094402
 20
6.945387525
 30
0.0
 11
7.9103094402
 21
8.5390821578
 31
0.0
  0
MTEXT
  5
136
330
12D
100
AcDbEntity
  8
0
  6
Continuous
 62
     7
370
    18
100
AcDbMText
 10
7.7486774908
 20
8.700215639
 30
0.0
 40
0.125
 41
0.0
 71
     1
 72
     1
  1
1.69
  7
SLDTEXTSTYLE0
 73
     1
 44
1.0
  0
ENDBLK
  5
12F
330
12D
100
AcDbEntity
  8
0
100
AcDbBlockEnd
  0
BLOCK
  5
138
330
137
100
AcDbEntity
  8
0
100
AcDbBlockBegin
  2
SW_CENTERMARKSYMBOL_0
 70
     0
 10
0.0
 20
0.0
 30
0.0
  3
SW_CENTERMARKSYMBOL_0
  1

  0
LINE
  5
13A
330
137
100
AcDbEntity
  8
0
  6
Continuous
 62
     0
370
     0
100
AcDbLine
 10
0.0
 20
0.0
 30
0.0
 11
0.0
 21
0.2
 31
0.0
  0
LINE
  5
13B
330
137
100
AcDbEntity
  8
0
  6
Continuous
 62
     0
370
     0
100
AcDbLine
 10
0.0
 20
0.0
 30
0.0
 11
-0.2
 21
0.0
 31
0.0
  0
LINE
  5
13C
330
137
100
AcDbEntity
  8
0
  6
Continuous
 62
     0
370
     0
100
AcDbLine
 10
0.0
 20
0.0
 30
0.0
 11
0.0
 21
-0.2
 31
0.0
  0
LINE
  5
13D
330
137
100
AcDbEntity
  8
0
  6
Continuous
 62
     0
370
     0
100
AcDbLine
 10
0.0
 20
0.0
 30
0.0
 11
0.2
 21
0.0
 31
0.0
  0
LINE
  5
13E
330
137
100
AcDbEntity
  8
0
  6
Continuous
 62
     0
370
     0
100
AcDbLine
 10
0.0
 20
0.2
 30
0.0
 11
0.0
 21
0.3338582677
 31
0.0
  0
LINE
  5
13F
330
137
100
AcDbEntity
  8
0
  6
Continuous
 62
     0
370
     0
100
AcDbLine
 10
-0.2
 20
0.0
 30
0.0
 11
-0.3338582677
 21
0.0
 31
0.0
  0
LINE
  5
140
330
137
100
AcDbEntity
  8
0
  6
Continuous
 62
     0
370
     0
100
AcDbLine
 10
0.0
 20
-0.2
 30
0.0
 11
0.0
 21
-0.3338582677
 31
0.0
  0
LINE
  5
141
330
137
100
AcDbEntity
  8
0
  6
Continuous
 62
     0
370
     0
100
AcDbLine
 10
0.2
 20
0.0
 30
0.0
 11
0.3338582677
 21
0.0
 31
0.0
  0
ENDBLK
  5
139
330
137
100
AcDbEntity
  8
0
100
AcDbBlockEnd
  0
BLOCK
  5
144
330
143
100
AcDbEntity
  8
0
100
AcDbBlockBegin
  2
SW_CENTERMARKSYMBOL_1
 70
     0
 10
0.0
 20
0.0
 30
0.0
  3
SW_CENTERMARKSYMBOL_1
  1

  0
LINE
  5
146
330
143
100
AcDbEntity
  8
0
  6
Continuous
 62
     0
370
     0
100
AcDbLine
 10
0.0
 20
0.0
 30
0.0
 11
0.0
 21
0.2
 31
0.0
  0
LINE
  5
147
330
143
100
AcDbEntity
  8
0
  6
Continuous
 62
     0
370
     0
100
AcDbLine
 10
0.0
 20
0.0
 30
0.0
 11
-0.2
 21
0.0
 31
0.0
  0
LINE
  5
148
330
143
100
AcDbEntity
  8
0
  6
Continuous
 62
     0
370
     0
100
AcDbLine
 10
0.0
 20
0.0
 30
0.0
 11
0.0
 21
-0.2
 31
0.0
  0
LINE
  5
149
330
143
100
AcDbEntity
  8
0
  6
Continuous
 62
     0
370
     0
100
AcDbLine
 10
0.0
 20
0.0
 30
0.0
 11
0.2
 21
0.0
 31
0.0
  0
LINE
  5
14A
330
143
100
AcDbEntity
  8
0
  6
Continuous
 62
     0
370
     0
100
AcDbLine
 10
0.0
 20
0.2
 30
0.0
 11
0.0
 21
0.3338582677
 31
0.0
  0
LINE
  5
14B
330
143
100
AcDbEntity
  8
0
  6
Continuous
 62
     0
370
     0
100
AcDbLine
 10
-0.2
 20
0.0
 30
0.0
 11
-0.3338582677
 21
0.0
 31
0.0
  0
LINE
  5
14C
330
143
100
AcDbEntity
  8
0
  6
Continuous
 62
     0
370
     0
100
AcDbLine
 10
0.0
 20
-0.2
 30
0.0
 11
0.0
 21
-0.3338582677
 31
0.0
  0
LINE
  5
14D
330
143
100
AcDbEntity
  8
0
  6
Continuous
 62
     0
370
     0
100
AcDbLine
 10
0.2
 20
0.0
 30
0.0
 11
0.3338582677
 21
0.0
 31
0.0
  0
ENDBLK
  5
145
330
143
100
AcDbEntity
  8
0
100
AcDbBlockEnd
  0
BLOCK
  5
150
330
14F
100
AcDbEntity
  8
0
100
AcDbBlockBegin
  2
SW_CENTERMARKSYMBOL_2
 70
     0
 10
0.0
 20
0.0
 30
0.0
  3
SW_CENTERMARKSYMBOL_2
  1

  0
LINE
  5
152
330
14F
100
AcDbEntity
  8
0
  6
Continuous
 62
     0
370
     0
100
AcDbLine
 10
0.0
 20
0.0
 30
0.0
 11
0.0
 21
0.2
 31
0.0
  0
LINE
  5
153
330
14F
100
AcDbEntity
  8
0
  6
Continuous
 62
     0
370
     0
100
AcDbLine
 10
0.0
 20
0.0
 30
0.0
 11
-0.2
 21
0.0
 31
0.0
  0
LINE
  5
154
330
14F
100
AcDbEntity
  8
0
  6
Continuous
 62
     0
370
     0
100
AcDbLine
 10
0.0
 20
0.0
 30
0.0
 11
0.0
 21
-0.2
 31
0.0
  0
LINE
  5
155
330
14F
100
AcDbEntity
  8
0
  6
Continuous
 62
     0
370
     0
100
AcDbLine
 10
0.0
 20
0.0
 30
0.0
 11
0.2
 21
0.0
 31
0.0
  0
LINE
  5
156
330
14F
100
AcDbEntity
  8
0
  6
Continuous
 62
     0
370
     0
100
AcDbLine
 10
0.0
 20
0.2
 30
0.0
 11
0.0
 21
0.3338582677
 31
0.0
  0
LINE
  5
157
330
14F
100
AcDbEntity
  8
0
  6
Continuous
 62
     0
370
     0
100
AcDbLine
 10
-0.2
 20
0.0
 30
0.0
 11
-0.3338582677
 21
0.0
 31
0.0
  0
LINE
  5
158
330
14F
100
AcDbEntity
  8
0
  6
Continuous
 62
     0
370
     0
100
AcDbLine
 10
0.0
 20
-0.2
 30
0.0
 11
0.0
 21
-0.3338582677
 31
0.0
  0
LINE
  5
159
330
14F
100
AcDbEntity
  8
0
  6
Continuous
 62
     0
370
     0
100
AcDbLine
 10
0.2
 20
0.0
 30
0.0
 11
0.3338582677
 21
0.0
 31
0.0
  0
ENDBLK
  5
151
330
14F
100
AcDbEntity
  8
0
100
AcDbBlockEnd
  0
BLOCK
  5
15C
330
15B
100
AcDbEntity
  8
0
100
AcDbBlockBegin
  2
SW_CENTERMARKSYMBOL_3
 70
     0
 10
0.0
 20
0.0
 30
0.0
  3
SW_CENTERMARKSYMBOL_3
  1

  0
LINE
  5
15E
330
15B
100
AcDbEntity
  8
0
  6
Continuous
 62
     0
370
     0
100
AcDbLine
 10
0.0
 20
0.0
 30
0.0
 11
0.0
 21
0.2
 31
0.0
  0
LINE
  5
15F
330
15B
100
AcDbEntity
  8
0
  6
Continuous
 62
     0
370
     0
100
AcDbLine
 10
0.0
 20
0.0
 30
0.0
 11
-0.2
 21
0.0
 31
0.0
  0
LINE
  5
160
330
15B
100
AcDbEntity
  8
0
  6
Continuous
 62
     0
370
     0
100
AcDbLine
 10
0.0
 20
0.0
 30
0.0
 11
0.0
 21
-0.2
 31
0.0
  0
LINE
  5
161
330
15B
100
AcDbEntity
  8
0
  6
Continuous
 62
     0
370
     0
100
AcDbLine
 10
0.0
 20
0.0
 30
0.0
 11
0.2
 21
0.0
 31
0.0
  0
LINE
  5
162
330
15B
100
AcDbEntity
  8
0
  6
Continuous
 62
     0
370
     0
100
AcDbLine
 10
0.0
 20
0.2
 30
0.0
 11
0.0
 21
0.3338582677
 31
0.0
  0
LINE
  5
163
330
15B
100
AcDbEntity
  8
0
  6
Continuous
 62
     0
370
     0
100
AcDbLine
 10
-0.2
 20
0.0
 30
0.0
 11
-0.3338582677
 21
0.0
 31
0.0
  0
LINE
  5
164
330
15B
100
AcDbEntity
  8
0
  6
Continuous
 62
     0
370
     0
100
AcDbLine
 10
0.0
 20
-0.2
 30
0.0
 11
0.0
 21
-0.3338582677
 31
0.0
  0
LINE
  5
165
330
15B
100
AcDbEntity
  8
0
  6
Continuous
 62
     0
370
     0
100
AcDbLine
 10
0.2
 20
0.0
 30
0.0
 11
0.3338582677
 21
0.0
 31
0.0
  0
ENDBLK
  5
15D
330
15B
100
AcDbEntity
  8
0
100
AcDbBlockEnd
  0
BLOCK
  5
1BB
330
1BA
100
AcDbEntity
  8
0
100
AcDbBlockBegin
  2
_D_3
 70
     0
 10
0.0
 20
0.0
 30
0.0
  3
_D_3
  1

  0
SOLID
  5
1BD
330
1BA
100
AcDbEntity
  8
0
  6
Continuous
 62
     7
370
    18
100
AcDbTrace
 10
7.3345673566
 20
4.2472034056
 30
0.0
 11
7.4033985255
 21
4.135121872
 31
0.0
 12
7.4339048284
 22
4.1609939706
 32
0.0
 13
7.4339048284
 23
4.1609939706
 33
0.0
  0
LINE
  5
1BE
330
1BA
100
AcDbEntity
  8
0
  6
Continuous
 62
     7
370
    18
100
AcDbLine
 10
7.3345673566
 20
4.2472034056
 30
0.0
 11
7.9575487099
 21
3.5126337769
 31
0.0
  0
LINE
  5
1BF
330
1BA
100
AcDbEntity
  8
0
  6
Continuous
 62
     7
370
    18
100
AcDbLine
 10
7.9575487099
 20
3.5126337769
 30
0.0
 11
8.1762987099
 21
3.5126337769
 31
0.0
  0
MTEXT
  5
1C0
330
1BA
100
AcDbEntity
  8
0
  6
Continuous
 62
     7
370
    18
100
AcDbMText
 10
8.2884646028
 20
3.6747221021
 30
0.0
 40
0.125
 41
0.0
 71
     1
 72
     1
  1
4X
  7
SLDTEXTSTYLE0
 73
     1
 44
1.0
  0
MTEXT
  5
1C1
330
1BA
100
AcDbEntity
  8
0
  6
Continuous
 62
     7
370
    18
100
AcDbMText
 10
8.5285687658
 20
3.6728123798
 30
0.0
 40
0.125
 41
0.0
 71
     1
 72
     1
  1
%%c
  7
SLDTEXTSTYLE0
 73
     1
 44
1.0
  0
MTEXT
  5
1C2
330
1BA
100
AcDbEntity
  8
0
  6
Continuous
 62
     7
370
    18
100
AcDbMText
 10
8.7639594047
 20
3.6747221021
 30
0.0
 40
0.125
 41
0.0
 71
     1
 72
     1
  1
.134 THRU ALL
  7
SLDTEXTSTYLE0
 73
     1
 44
1.0
  0
MTEXT
  5
1C3
330
1BA
100
AcDbEntity
  8
0
  6
Continuous
 62
     7
370
    18
100
AcDbMText
 10
8.2387987099
 20
3.4743748898
 30
0.0
 40
0.125
 41
0.0
 71
     1
 72
     1
  1
FOR M3 CLEARANCE
  7
SLDTEXTSTYLE0
 73
     1
 44
1.0
  0
ENDBLK
  5
1BC
330
1BA
100
AcDbEntity
  8
0
100
AcDbBlockEnd
  0
BLOCK
  5
1C5
330
1C4
100
AcDbEntity
  8
0
100
AcDbBlockBegin
  2
SW_CENTERMARKSYMBOL_4
 70
     0
 10
0.0
 20
0.0
 30
0.0
  3
SW_CENTERMARKSYMBOL_4
  1

  0
LINE
  5
1C7
330
1C4
100
AcDbEntity
  8
0
  6
Continuous
 62
     0
370
     0
100
AcDbLine
 10
0.0
 20
0.0
 30
0.0
 11
0.0
 21
0.2
 31
0.0
  0
LINE
  5
1C8
330
1C4
100
AcDbEntity
  8
0
  6
Continuous
 62
     0
370
     0
100
AcDbLine
 10
0.0
 20
0.0
 30
0.0
 11
-0.2
 21
0.0
 31
0.0
  0
LINE
  5
1C9
330
1C4
100
AcDbEntity
  8
0
  6
Continuous
 62
     0
370
     0
100
AcDbLine
 10
0.0
 20
0.0
 30
0.0
 11
0.0
 21
-0.2
 31
0.0
  0
LINE
  5
1CA
330
1C4
100
AcDbEntity
  8
0
  6
Continuous
 62
     0
370
     0
100
AcDbLine
 10
0.0
 20
0.0
 30
0.0
 11
0.2
 21
0.0
 31
0.0
  0
LINE
  5
1CB
330
1C4
100
AcDbEntity
  8
0
  6
Continuous
 62
     0
370
     0
100
AcDbLine
 10
0.0
 20
0.2
 30
0.0
 11
0.0
 21
0.3338582677
 31
0.0
  0
LINE
  5
1CC
330
1C4
100
AcDbEntity
  8
0
  6
Continuous
 62
     0
370
     0
100
AcDbLine
 10
-0.2
 20
0.0
 30
0.0
 11
-0.3338582677
 21
0.0
 31
0.0
  0
LINE
  5
1CD
330
1C4
100
AcDbEntity
  8
0
  6
Continuous
 62
     0
370
     0
100
AcDbLine
 10
0.0
 20
-0.2
 30
0.0
 11
0.0
 21
-0.3338582677
 31
0.0
  0
LINE
  5
1CE
330
1C4
100
AcDbEntity
  8
0
  6
Continuous
 62
     0
370
     0
100
AcDbLine
 10
0.2
 20
0.0
 30
0.0
 11
0.3338582677
 21
0.0
 31
0.0
  0
ENDBLK
  5
1C6
330
1C4
100
AcDbEntity
  8
0
100
AcDbBlockEnd
  0
BLOCK
  5
1D1
330
1D0
100
AcDbEntity
  8
0
100
AcDbBlockBegin
  2
SW_CENTERMARKSYMBOL_5
 70
     0
 10
0.0
 20
0.0
 30
0.0
  3
SW_CENTERMARKSYMBOL_5
  1

  0
LINE
  5
1D3
330
1D0
100
AcDbEntity
  8
0
  6
Continuous
 62
     0
370
     0
100
AcDbLine
 10
0.0
 20
0.0
 30
0.0
 11
0.0
 21
0.2
 31
0.0
  0
LINE
  5
1D4
330
1D0
100
AcDbEntity
  8
0
  6
Continuous
 62
     0
370
     0
100
AcDbLine
 10
0.0
 20
0.0
 30
0.0
 11
-0.2
 21
0.0
 31
0.0
  0
LINE
  5
1D5
330
1D0
100
AcDbEntity
  8
0
  6
Continuous
 62
     0
370
     0
100
AcDbLine
 10
0.0
 20
0.0
 30
0.0
 11
0.0
 21
-0.2
 31
0.0
  0
LINE
  5
1D6
330
1D0
100
AcDbEntity
  8
0
  6
Continuous
 62
     0
370
     0
100
AcDbLine
 10
0.0
 20
0.0
 30
0.0
 11
0.2
 21
0.0
 31
0.0
  0
LINE
  5
1D7
330
1D0
100
AcDbEntity
  8
0
  6
Continuous
 62
     0
370
     0
100
AcDbLine
 10
0.0
 20
0.2
 30
0.0
 11
0.0
 21
0.3338582677
 31
0.0
  0
LINE
  5
1D8
330
1D0
100
AcDbEntity
  8
0
  6
Continuous
 62
     0
370
     0
100
AcDbLine
 10
-0.2
 20
0.0
 30
0.0
 11
-0.3338582677
 21
0.0
 31
0.0
  0
LINE
  5
1D9
330
1D0
100
AcDbEntity
  8
0
  6
Continuous
 62
     0
370
     0
100
AcDbLine
 10
0.0
 20
-0.2
 30
0.0
 11
0.0
 21
-0.3338582677
 31
0.0
  0
LINE
  5
1DA
330
1D0
100
AcDbEntity
  8
0
  6
Continuous
 62
     0
370
     0
100
AcDbLine
 10
0.2
 20
0.0
 30
0.0
 11
0.3338582677
 21
0.0
 31
0.0
  0
ENDBLK
  5
1D2
330
1D0
100
AcDbEntity
  8
0
100
AcDbBlockEnd
  0
BLOCK
  5
1DD
330
1DC
100
AcDbEntity
  8
0
100
AcDbBlockBegin
  2
SW_CENTERMARKSYMBOL_6
 70
     0
 10
0.0
 20
0.0
 30
0.0
  3
SW_CENTERMARKSYMBOL_6
  1

  0
LINE
  5
1DF
330
1DC
100
AcDbEntity
  8
0
  6
Continuous
 62
     0
370
     0
100
AcDbLine
 10
0.0
 20
0.0
 30
0.0
 11
0.0
 21
0.2
 31
0.0
  0
LINE
  5
1E0
330
1DC
100
AcDbEntity
  8
0
  6
Continuous
 62
     0
370
     0
100
AcDbLine
 10
0.0
 20
0.0
 30
0.0
 11
-0.2
 21
0.0
 31
0.0
  0
LINE
  5
1E1
330
1DC
100
AcDbEntity
  8
0
  6
Continuous
 62
     0
370
     0
100
AcDbLine
 10
0.0
 20
0.0
 30
0.0
 11
0.0
 21
-0.2
 31
0.0
  0
LINE
  5
1E2
330
1DC
100
AcDbEntity
  8
0
  6
Continuous
 62
     0
370
     0
100
AcDbLine
 10
0.0
 20
0.0
 30
0.0
 11
0.2
 21
0.0
 31
0.0
  0
LINE
  5
1E3
330
1DC
100
AcDbEntity
  8
0
  6
Continuous
 62
     0
370
     0
100
AcDbLine
 10
0.0
 20
0.2
 30
0.0
 11
0.0
 21
0.3338582677
 31
0.0
  0
LINE
  5
1E4
330
1DC
100
AcDbEntity
  8
0
  6
Continuous
 62
     0
370
     0
100
AcDbLine
 10
-0.2
 20
0.0
 30
0.0
 11
-0.3338582677
 21
0.0
 31
0.0
  0
LINE
  5
1E5
330
1DC
100
AcDbEntity
  8
0
  6
Continuous
 62
     0
370
     0
100
AcDbLine
 10
0.0
 20
-0.2
 30
0.0
 11
0.0
 21
-0.3338582677
 31
0.0
  0
LINE
  5
1E6
330
1DC
100
AcDbEntity
  8
0
  6
Continuous
 62
     0
370
     0
100
AcDbLine
 10
0.2
 20
0.0
 30
0.0
 11
0.3338582677
 21
0.0
 31
0.0
  0
ENDBLK
  5
1DE
330
1DC
100
AcDbEntity
  8
0
100
AcDbBlockEnd
  0
BLOCK
  5
1E9
330
1E8
100
AcDbEntity
  8
0
100
AcDbBlockBegin
  2
SW_CENTERMARKSYMBOL_7
 70
     0
 10
0.0
 20
0.0
 30
0.0
  3
SW_CENTERMARKSYMBOL_7
  1

  0
LINE
  5
1EB
330
1E8
100
AcDbEntity
  8
0
  6
Continuous
 62
     0
370
     0
100
AcDbLine
 10
0.0
 20
0.0
 30
0.0
 11
0.0
 21
0.2
 31
0.0
  0
LINE
  5
1EC
330
1E8
100
AcDbEntity
  8
0
  6
Continuous
 62
     0
370
     0
100
AcDbLine
 10
0.0
 20
0.0
 30
0.0
 11
-0.2
 21
0.0
 31
0.0
  0
LINE
  5
1ED
330
1E8
100
AcDbEntity
  8
0
  6
Continuous
 62
     0
370
     0
100
AcDbLine
 10
0.0
 20
0.0
 30
0.0
 11
0.0
 21
-0.2
 31
0.0
  0
LINE
  5
1EE
330
1E8
100
AcDbEntity
  8
0
  6
Continuous
 62
     0
370
     0
100
AcDbLine
 10
0.0
 20
0.0
 30
0.0
 11
0.2
 21
0.0
 31
0.0
  0
LINE
  5
1EF
330
1E8
100
AcDbEntity
  8
0
  6
Continuous
 62
     0
370
     0
100
AcDbLine
 10
0.0
 20
0.2
 30
0.0
 11
0.0
 21
0.3338582677
 31
0.0
  0
LINE
  5
1F0
330
1E8
100
AcDbEntity
  8
0
  6
Continuous
 62
     0
370
     0
100
AcDbLine
 10
-0.2
 20
0.0
 30
0.0
 11
-0.3338582677
 21
0.0
 31
0.0
  0
LINE
  5
1F1
330
1E8
100
AcDbEntity
  8
0
  6
Continuous
 62
     0
370
     0
100
AcDbLine
 10
0.0
 20
-0.2
 30
0.0
 11
0.0
 21
-0.3338582677
 31
0.0
  0
LINE
  5
1F2
330
1E8
100
AcDbEntity
  8
0
  6
Continuous
 62
     0
370
     0
100
AcDbLine
 10
0.2
 20
0.0
 30
0.0
 11
0.3338582677
 21
0.0
 31
0.0
  0
ENDBLK
  5
1EA
330
1E8
100
AcDbEntity
  8
0
100
AcDbBlockEnd
  0
ENDSEC
  0
SECTION
  2
ENTITIES
  0
LINE
  5
74
330
1F
100
AcDbEntity
  8
0
  6
Continuous
 62
     7
370
    18
100
AcDbLine
 10
10.6682571288
 20
0.5
 30
0.0
 11
10.6682571288
 21
2.4717336621
 31
0.0
  0
LINE
  5
75
330
1F
100
AcDbEntity
  8
0
  6
Continuous
 62
     7
370
    18
100
AcDbLine
 10
10.6682571288
 20
2.4717336621
 30
0.0
 11
16.5
 21
2.4717336621
 31
0.0
  0
LINE
  5
76
330
1F
100
AcDbEntity
  8
0
  6
Continuous
 62
     7
370
    18
100
AcDbLine
 10
12.0452023081
 20
2.4717336621
 30
0.0
 11
12.0452023081
 21
0.5
 31
0.0
  0
LINE
  5
77
330
1F
100
AcDbEntity
  8
0
  6
Continuous
 62
     7
370
    18
100
AcDbLine
 10
13.7412800044
 20
2.4717336621
 30
0.0
 11
13.7412800044
 21
0.5
 31
0.0
  0
LINE
  5
78
330
1F
100
AcDbEntity
  8
0
  6
Continuous
 62
     7
370
    18
100
AcDbLine
 10
13.7412800044
 20
0.7128858394
 30
0.0
 11
16.5
 21
0.7128858394
 31
0.0
  0
LINE
  5
79
330
1F
100
AcDbEntity
  8
0
  6
Continuous
 62
     7
370
    18
100
AcDbLine
 10
13.7412800044
 20
1.2198630749
 30
0.0
 11
16.5
 21
1.2198630749
 31
0.0
  0
LINE
  5
7A
330
1F
100
AcDbEntity
  8
0
  6
Continuous
 62
     7
370
    18
100
AcDbLine
 10
13.7412800044
 20
2.0971972001
 30
0.0
 11
16.5
 21
2.0971972001
 31
0.0
  0
LINE
  5
7B
330
1F
100
AcDbEntity
  8
0
  6
Continuous
 62
     7
370
    18
100
AcDbLine
 10
14.136824752
 20
1.2198630749
 30
0.0
 11
14.136824752
 21
0.7128858394
 31
0.0
  0
LINE
  5
7C
330
1F
100
AcDbEntity
  8
0
  6
Continuous
 62
     7
370
    18
100
AcDbLine
 10
14.5644165176
 20
0.7128858394
 30
0.0
 11
14.5644165176
 21
0.5
 31
0.0
  0
LINE
  5
7D
330
1F
100
AcDbEntity
  8
0
  6
Continuous
 62
     7
370
    18
100
AcDbLine
 10
15.9280647045
 20
1.2198630749
 30
0.0
 11
15.9280647045
 21
0.7128858394
 31
0.0
  0
LINE
  5
7E
330
1F
100
AcDbEntity
  8
0
  6
Continuous
 62
     7
370
    18
100
AcDbLine
 10
15.5363286631
 20
0.7128858394
 30
0.0
 11
15.5363286631
 21
0.5
 31
0.0
  0
LINE
  5
7F
330
1F
100
AcDbEntity
  8
0
  6
Continuous
 62
     7
370
    18
100
AcDbLine
 10
10.6682571288
 20
0.6973203287
 30
0.0
 11
12.0452023081
 21
0.6973203287
 31
0.0
  0
LINE
  5
80
330
1F
100
AcDbEntity
  8
0
  6
Continuous
 62
     7
370
    18
100
AcDbLine
 10
12.0452023081
 20
1.9018479659
 30
0.0
 11
13.7412800044
 21
1.9018479659
 31
0.0
  0
LINE
  5
81
330
1F
100
AcDbEntity
  8
0
  6
Continuous
 62
     7
370
    18
100
AcDbLine
 10
12.0452023081
 20
2.0893479659
 30
0.0
 11
13.7412800044
 21
2.0893479659
 31
0.0
  0
LINE
  5
82
330
1F
100
AcDbEntity
  8
0
  6
Continuous
 62
     7
370
    18
100
AcDbLine
 10
12.0452023081
 20
2.2768479659
 30
0.0
 11
13.7412800044
 21
2.2768479659
 31
0.0
  0
LINE
  5
83
330
1F
100
AcDbEntity
  8
0
  6
Continuous
 62
     7
370
    18
100
AcDbLine
 10
13.7412800044
 20
1.3393479659
 30
0.0
 11
12.0497082514
 21
1.3393479659
 31
0.0
  0
LINE
  5
84
330
1F
100
AcDbEntity
  8
0
  6
Continuous
 62
     7
370
    18
100
AcDbLine
 10
13.2622310388
 20
2.4717336621
 30
0.0
 11
13.2622310388
 21
1.3393479659
 31
0.0
  0
LINE
  5
85
330
1F
100
AcDbEntity
  8
0
  6
Continuous
 62
     7
370
    18
100
AcDbLine
 10
12.7937038342
 20
2.4717336621
 30
0.0
 11
12.7937038342
 21
1.3393479659
 31
0.0
  0
LINE
  5
86
330
1F
100
AcDbEntity
  8
0
  6
Continuous
 62
     7
370
    18
100
AcDbLine
 10
10.6682571288
 20
0.9637233598
 30
0.0
 11
12.0452023081
 21
0.9637233598
 31
0.0
  0
LINE
  5
87
330
1F
100
AcDbEntity
  8
0
  6
Continuous
 62
     7
370
    18
100
AcDbLine
 10
10.6682571288
 20
1.2337233598
 30
0.0
 11
12.0497082514
 21
1.2337233598
 31
0.0
  0
LINE
  5
88
330
1F
100
AcDbEntity
  8
0
  6
Continuous
 62
     7
370
    18
100
AcDbLine
 10
12.0452023081
 20
2.3100081789
 30
0.0
 11
10.6682571288
 21
2.3100081789
 31
0.0
  0
LINE
  5
89
330
1F
100
AcDbEntity
  8
0
  6
Continuous
 62
     7
370
    18
100
AcDbLine
 10
13.7412800044
 20
1.7143479659
 30
0.0
 11
12.0452023081
 21
1.7143479659
 31
0.0
  0
LINE
  5
8A
330
1F
100
AcDbEntity
  8
0
  6
Continuous
 62
     7
370
    18
100
AcDbLine
 10
13.7412800044
 20
1.5268479659
 30
0.0
 11
12.0452023081
 21
1.5268479659
 31
0.0
  0
LINE
  5
8B
330
1F
100
AcDbEntity
  8
0
  6
Continuous
 62
     7
370
    18
100
AcDbLine
 10
10.6682571288
 20
1.5037233598
 30
0.0
 11
12.0497082514
 21
1.5037233598
 31
0.0
  0
LINE
  5
8C
330
1F
100
AcDbEntity
  8
0
  6
Continuous
 62
     7
370
    18
100
AcDbLine
 10
9.0251519844
 20
0.5
 30
0.0
 11
9.0251519844
 21
1.4485318129
 31
0.0
  0
LINE
  5
8D
330
1F
100
AcDbEntity
  8
0
  6
Continuous
 62
     7
370
    18
100
AcDbLine
 10
10.6682571288
 20
1.4485318129
 30
0.0
 11
9.0251519844
 21
1.4485318129
 31
0.0
  0
LINE
  5
8E
330
1F
100
AcDbEntity
  8
0
  6
Continuous
 62
     7
370
    50
100
AcDbLine
 10
0.5
 20
0.5
 30
0.0
 11
0.5
 21
10.5
 31
0.0
  0
LINE
  5
8F
330
1F
100
AcDbEntity
  8
0
  6
Continuous
 62
     7
370
    50
100
AcDbLine
 10
0.5
 20
10.5
 30
0.0
 11
16.5
 21
10.5
 31
0.0
  0
LINE
  5
90
330
1F
100
AcDbEntity
  8
0
  6
Continuous
 62
     7
370
    50
100
AcDbLine
 10
16.5
 20
10.5
 30
0.0
 11
16.5
 21
0.5
 31
0.0
  0
LINE
  5
91
330
1F
100
AcDbEntity
  8
0
  6
Continuous
 62
     7
370
    50
100
AcDbLine
 10
16.5
 20
0.5
 30
0.0
 11
0.5
 21
0.5
 31
0.0
  0
LINE
  5
92
330
1F
100
AcDbEntity
  8
0
  6
Continuous
 62
     7
370
    25
100
AcDbLine
 10
0.125
 20
5.5
 30
0.0
 11
0.5
 21
5.5
 31
0.0
  0
LINE
  5
93
330
1F
100
AcDbEntity
  8
0
  6
Continuous
 62
     7
370
    25
100
AcDbLine
 10
8.5
 20
10.875
 30
0.0
 11
8.5
 21
10.5
 31
0.0
  0
LINE
  5
94
330
1F
100
AcDbEntity
  8
0
  6
Continuous
 62
     7
370
    25
100
AcDbLine
 10
16.875
 20
5.5
 30
0.0
 11
16.5
 21
5.5
 31
0.0
  0
LINE
  5
95
330
1F
100
AcDbEntity
  8
0
  6
Continuous
 62
     7
370
    25
100
AcDbLine
 10
8.5
 20
0.125
 30
0.0
 11
8.5
 21
0.5
 31
0.0
  0
LINE
  5
96
330
1F
100
AcDbEntity
  8
0
  6
Continuous
 62
     7
370
    25
100
AcDbLine
 10
0.5
 20
5.5
 30
0.0
 11
0.125
 21
5.5
 31
0.0
  0
LINE
  5
97
330
1F
100
AcDbEntity
  8
0
  6
Continuous
 62
     7
370
    25
100
AcDbLine
 10
16.5
 20
5.5
 30
0.0
 11
16.875
 21
5.5
 31
0.0
  0
LINE
  5
98
330
1F
100
AcDbEntity
  8
0
  6
Continuous
 62
     7
370
    25
100
AcDbLine
 10
4.25
 20
10.5
 30
0.0
 11
4.25
 21
10.875
 31
0.0
  0
LINE
  5
99
330
1F
100
AcDbEntity
  8
0
  6
Continuous
 62
     7
370
    25
100
AcDbLine
 10
4.25
 20
0.5
 30
0.0
 11
4.25
 21
0.125
 31
0.0
  0
LINE
  5
9A
330
1F
100
AcDbEntity
  8
0
  6
Continuous
 62
     7
370
    25
100
AcDbLine
 10
8.5
 20
10.5
 30
0.0
 11
8.5
 21
10.875
 31
0.0
  0
LINE
  5
9B
330
1F
100
AcDbEntity
  8
0
  6
Continuous
 62
     7
370
    25
100
AcDbLine
 10
8.5
 20
0.5
 30
0.0
 11
8.5
 21
0.125
 31
0.0
  0
LINE
  5
9C
330
1F
100
AcDbEntity
  8
0
  6
Continuous
 62
     7
370
    25
100
AcDbLine
 10
12.75
 20
10.5
 30
0.0
 11
12.75
 21
10.875
 31
0.0
  0
LINE
  5
9D
330
1F
100
AcDbEntity
  8
0
  6
Continuous
 62
     7
370
    25
100
AcDbLine
 10
12.75
 20
0.5
 30
0.0
 11
12.75
 21
0.125
 31
0.0
  0
MTEXT
  5
9F
330
1F
100
AcDbEntity
  8
0
  6
Continuous
 62
     7
370
     0
100
AcDbMText
 10
13.6333817482
 20
2.7055033511
 30
0.0
 40
0.125
 41
0.0
 71
     1
 72
     1
  1
MANUFACTURE TO DATA
  7
SLDTEXTSTYLE0
 73
     1
 44
1.0
  0
MTEXT
  5
A0
330
1F
100
AcDbEntity
  8
0
  6
Continuous
 62
     7
370
     0
100
AcDbMText
 10
0.240416667
 20
2.7490429292
 30
0.0
 40
0.24
 41
0.0
 71
     2
 72
     1
  1
A
  7
SLDTEXTSTYLE0
 73
     1
 44
1.0
  0
MTEXT
  5
A1
330
1F
100
AcDbEntity
  8
0
  6
Continuous
 62
     7
370
     0
100
AcDbMText
 10
16.740416667
 20
2.7490429292
 30
0.0
 40
0.24
 41
0.0
 71
     2
 72
     1
  1
A
  7
SLDTEXTSTYLE0
 73
     1
 44
1.0
  0
MTEXT
  5
A2
330
1F
100
AcDbEntity
  8
0
  6
Continuous
 62
     7
370
     0
100
AcDbMText
 10
0.2481666625
 20
8.2490429292
 30
0.0
 40
0.24
 41
0.0
 71
     2
 72
     1
  1
B
  7
SLDTEXTSTYLE0
 73
     1
 44
1.0
  0
MTEXT
  5
A3
330
1F
100
AcDbEntity
  8
0
  6
Continuous
 62
     7
370
     0
100
AcDbMText
 10
16.7481666625
 20
8.2490429292
 30
0.0
 40
0.24
 41
0.0
 71
     2
 72
     1
  1
B
  7
SLDTEXTSTYLE0
 73
     1
 44
1.0
  0
MTEXT
  5
A4
330
1F
100
AcDbEntity
  8
0
  6
Continuous
 62
     7
370
     0
100
AcDbMText
 10
2.1225833335
 20
0.3725862363
 30
0.0
 40
0.24
 41
0.0
 71
     2
 72
     1
  1
4
  7
SLDTEXTSTYLE0
 73
     1
 44
1.0
  0
MTEXT
  5
A5
330
1F
100
AcDbEntity
  8
0
  6
Continuous
 62
     7
370
     0
100
AcDbMText
 10
2.1225833335
 20
10.8725862363
 30
0.0
 40
0.24
 41
0.0
 71
     2
 72
     1
  1
4
  7
SLDTEXTSTYLE0
 73
     1
 44
1.0
  0
MTEXT
  5
A6
330
1F
100
AcDbEntity
  8
0
  6
Continuous
 62
     7
370
     0
100
AcDbMText
 10
6.3725833335
 20
0.3725862363
 30
0.0
 40
0.24
 41
0.0
 71
     2
 72
     1
  1
3
  7
SLDTEXTSTYLE0
 73
     1
 44
1.0
  0
MTEXT
  5
A7
330
1F
100
AcDbEntity
  8
0
  6
Continuous
 62
     7
370
     0
100
AcDbMText
 10
6.3725833335
 20
10.8725862363
 30
0.0
 40
0.24
 41
0.0
 71
     2
 72
     1
  1
3
  7
SLDTEXTSTYLE0
 73
     1
 44
1.0
  0
MTEXT
  5
A8
330
1F
100
AcDbEntity
  8
0
  6
Continuous
 62
     7
370
     0
100
AcDbMText
 10
10.6225833335
 20
0.3725862363
 30
0.0
 40
0.24
 41
0.0
 71
     2
 72
     1
  1
2
  7
SLDTEXTSTYLE0
 73
     1
 44
1.0
  0
MTEXT
  5
A9
330
1F
100
AcDbEntity
  8
0
  6
Continuous
 62
     7
370
     0
100
AcDbMText
 10
10.6225833335
 20
10.8725862363
 30
0.0
 40
0.24
 41
0.0
 71
     2
 72
     1
  1
2
  7
SLDTEXTSTYLE0
 73
     1
 44
1.0
  0
MTEXT
  5
AA
330
1F
100
AcDbEntity
  8
0
  6
Continuous
 62
     7
370
     0
100
AcDbMText
 10
14.8725833335
 20
0.3725862363
 30
0.0
 40
0.24
 41
0.0
 71
     2
 72
     1
  1
1
  7
SLDTEXTSTYLE0
 73
     1
 44
1.0
  0
MTEXT
  5
AB
330
1F
100
AcDbEntity
  8
0
  6
Continuous
 62
     7
370
     0
100
AcDbMText
 10
14.8725833335
 20
10.8725862363
 30
0.0
 40
0.24
 41
0.0
 71
     2
 72
     1
  1
1
  7
SLDTEXTSTYLE0
 73
     1
 44
1.0
  0
MTEXT
  5
AC
330
1F
100
AcDbEntity
  8
0
  6
Continuous
 62
     7
370
     0
100
AcDbMText
 10
15.1706055493
 20
1.8925862647
 30
0.0
 40
0.25
 41
0.0
 71
     2
 72
     1
  1
ENCLOSURE LID
  7
SLDTEXTSTYLE0
 73
     1
 44
1.0
  0
MTEXT
  5
AD
330
1F
100
AcDbEntity
  8
0
  6
Continuous
 62
     7
370
     0
100
AcDbMText
 10
11.3564467586
 20
0.6257720645
 30
0.0
 40
0.0625
 41
0.0
 71
     2
 72
     1
  1
DO NOT SCALE DRAWING
  7
SLDTEXTSTYLE0
 73
     1
 44
1.0
  0
MTEXT
  5
AF
330
1F
100
AcDbEntity
  8
0
  6
Continuous
 62
     7
370
     0
100
AcDbMText
 10
15.0580327124
 20
1.046866681
 30
0.0
 40
0.1875
 41
0.0
 71
     2
 72
     1
  1
SHEET 1 OF 1
  7
SLDTEXTSTYLE1
 73
     1
 44
1.0
  0
MTEXT
  5
B0
330
1F
100
AcDbEntity
  8
0
  6
Continuous
 62
     7
370
     0
100
AcDbMText
 10
15.6272008483
 20
0.6603507825
 30
0.0
 40
0.1
 41
0.0
 71
     1
 72
     1
  1
SHEET 1 OF 1
  7
SLDTEXTSTYLE1
 73
     1
 44
1.0
  0
MTEXT
  5
B1
330
1F
100
AcDbEntity
  8
0
  6
Continuous
 62
     7
370
     0
100
AcDbMText
 10
10.7148807858
 20
2.4212222426
 30
0.0
 40
0.07
 41
0.0
 71
     1
 72
     1
  1
UNLESS OTHERWISE SPECIFIED:
  7
SLDTEXTSTYLE0
 73
     1
 44
1.0
  0
MTEXT
  5
B2
330
1F
100
AcDbEntity
  8
0
  6
Continuous
 62
     7
370
     0
100
AcDbMText
 10
13.8286869647
 20
0.6600256172
 30
0.0
 40
0.1
 41
0.0
 71
     1
 72
     1
  1
SCALE: 2:1
  7
SLDTEXTSTYLE0
 73
     1
 44
1.0
  0
MTEXT
  5
B3
330
1F
100
AcDbEntity
  8
0
  6
Continuous
 62
     7
370
     0
100
AcDbMText
 10
14.5724421647
 20
0.6566031637
 30
0.0
 40
0.1
 41
0.0
 71
     1
 72
     1
  1
WEIGHT:
  7
SLDTEXTSTYLE0
 73
     1
 44
1.0
  0
MTEXT
  5
B4
330
1F
100
AcDbEntity
  8
0
  6
Continuous
 62
     7
370
     0
100
AcDbMText
 10
16.0978310983
 20
1.1898931282
 30
0.0
 40
0.1
 41
0.0
 71
     1
 72
     1
  1
REV
  7
SLDTEXTSTYLE0
 73
     1
 44
1.0
  0
MTEXT
  5
B6
330
1F
100
AcDbEntity
  8
0
  6
Continuous
 62
     7
370
     0
100
AcDbMText
 10
14.1685300898
 20
1.1937993586
 30
0.0
 40
0.1
 41
0.0
 71
     1
 72
     1
  1
DWG.  NO.
  7
SLDTEXTSTYLE2
 73
     1
 44
1.0
  0
MTEXT
  5
B7
330
1F
100
AcDbEntity
  8
0
  6
Continuous
 62
     7
370
     0
100
AcDbMText
 10
13.8299212632
 20
1.0521409015
 30
0.0
 40
0.25
 41
0.0
 71
     1
 72
     1
  1
B
  7
SLDTEXTSTYLE0
 73
     1
 44
1.0
  0
MTEXT
  5
B8
330
1F
100
AcDbEntity
  8
0
  6
Continuous
 62
     7
370
     0
100
AcDbMText
 10
13.8220311822
 20
1.1951981776
 30
0.0
 40
0.1
 41
0.0
 71
     1
 72
     1
  1
SIZE
  7
SLDTEXTSTYLE0
 73
     1
 44
1.0
  0
MTEXT
  5
B9
330
1F
100
AcDbEntity
  8
0
  6
Continuous
 62
     7
370
     0
100
AcDbMText
 10
13.7871434177
 20
2.062714942
 30
0.0
 40
0.1
 41
0.0
 71
     1
 72
     1
  1
TITLE:
  7
SLDTEXTSTYLE0
 73
     1
 44
1.0
  0
MTEXT
  5
BA
330
1F
100
AcDbEntity
  8
0
  6
Continuous
 62
     7
370
     0
100
AcDbMText
 10
12.9064504929
 20
2.3985429566
 30
0.0
 40
0.065
 41
0.0
 71
     1
 72
     1
  1
NAME
  7
SLDTEXTSTYLE0
 73
     1
 44
1.0
  0
MTEXT
  5
BB
330
1F
100
AcDbEntity
  8
0
  6
Continuous
 62
     7
370
     0
100
AcDbMText
 10
13.3982240634
 20
2.3968067411
 30
0.0
 40
0.065
 41
0.0
 71
     1
 72
     1
  1
DATE
  7
SLDTEXTSTYLE0
 73
     1
 44
1.0
  0
MTEXT
  5
BC
330
1F
100
AcDbEntity
  8
0
  6
Continuous
 62
     7
370
     0
100
AcDbMText
 10
12.0977877029
 20
1.2956181437
 30
0.0
 40
0.065
 41
0.0
 71
     1
 72
     1
  1
COMMENTS:
  7
SLDTEXTSTYLE0
 73
     1
 44
1.0
  0
MTEXT
  5
BD
330
1F
100
AcDbEntity
  8
0
  6
Continuous
 62
     7
370
     0
100
AcDbMText
 10
12.0969141461
 20
1.4615369972
 30
0.0
 40
0.065
 41
0.0
 71
     1
 72
     1
  1
Q.A.
  7
SLDTEXTSTYLE0
 73
     1
 44
1.0
  0
MTEXT
  5
BE
330
1F
100
AcDbEntity
  8
0
  6
Continuous
 62
     7
370
     0
100
AcDbMText
 10
12.0985384509
 20
1.6474596716
 30
0.0
 40
0.065
 41
0.0
 71
     1
 72
     1
  1
MFG APPR.
  7
SLDTEXTSTYLE0
 73
     1
 44
1.0
  0
MTEXT
  5
BF
330
1F
100
AcDbEntity
  8
0
  6
Continuous
 62
     7
370
     0
100
AcDbMText
 10
12.0935901344
 20
1.8346770078
 30
0.0
 40
0.065
 41
0.0
 71
     1
 72
     1
  1
ENG APPR.
  7
SLDTEXTSTYLE0
 73
     1
 44
1.0
  0
MTEXT
  5
C0
330
1F
100
AcDbEntity
  8
0
  6
Continuous
 62
     7
370
     0
100
AcDbMText
 10
12.0964833951
 20
2.0171967381
 30
0.0
 40
0.065
 41
0.0
 71
     1
 72
     1
  1
CHECKED
  7
SLDTEXTSTYLE0
 73
     1
 44
1.0
  0
MTEXT
  5
C1
330
1F
100
AcDbEntity
  8
0
  6
Continuous
 62
     7
370
     0
100
AcDbMText
 10
12.0943524356
 20
2.2095569525
 30
0.0
 40
0.065
 41
0.0
 71
     1
 72
     1
  1
DRAWN
  7
SLDTEXTSTYLE0
 73
     1
 44
1.0
  0
MTEXT
  5
C2
330
1F
100
AcDbEntity
  8
0
  6
Continuous
 62
     7
370
     0
100
AcDbMText
 10
10.6909330979
 20
0.9424500643
 30
0.0
 40
0.06
 41
0.0
 71
     1
 72
     1
  1
FINISH
  7
SLDTEXTSTYLE0
 73
     1
 44
1.0
  0
MTEXT
  5
C3
330
1F
100
AcDbEntity
  8
0
  6
Continuous
 62
     7
370
     0
100
AcDbMText
 10
10.6881970648
 20
1.210748588
 30
0.0
 40
0.06
 41
0.0
 71
     1
 72
     1
  1
MATERIAL
  7
SLDTEXTSTYLE0
 73
     1
 44
1.0
  0
INSERT
  5
C9
330
1F
100
AcDbEntity
  8
0
  6
Continuous
 62
     7
370
     0
100
AcDbBlockReference
  2
SW_NOTE_0
 10
10.6932656633
 20
1.3725811239
 30
0.0
  0
INSERT
  5
DB
330
1F
100
AcDbEntity
  8
0
  6
Continuous
 62
     7
370
     0
100
AcDbBlockReference
  2
SW_NOTE_1
 10
10.7054069353
 20
2.1128437016
 30
0.0
  0
MTEXT
  5
DC
330
1F
100
AcDbEntity
  8
0
  6
Continuous
 62
     7
370
     0
100
AcDbMText
 10
9.2359179587
 20
1.3964498641
 30
0.0
 40
0.06
 41
0.0
 71
     1
 72
     1
  1
PROPRIETARY AND CONFIDENTIAL
  7
SLDTEXTSTYLE0
 73
     1
 44
1.0
  0
INSERT
  5
E7
330
1F
100
AcDbEntity
  8
0
  6
Continuous
 62
     7
370
     0
100
AcDbBlockReference
  2
SW_NOTE_2
 10
9.0872899172
 20
1.1781318878
 30
0.0
  0
LINE
  5
E8
330
1F
100
AcDbEntity
  8
0
  6
Continuous
 62
     7
370
    25
100
AcDbLine
 10
7.3591284575
 20
6.3934819956
 30
0.0
 11
7.4378684813
 21
6.3934819956
 31
0.0
  0
ARC
  5
E9
330
1F
100
AcDbEntity
  8
0
  6
Continuous
 62
     7
370
    25
100
AcDbCircle
 10
7.4378684953
 20
6.3147418111
 30
0.0
 40
0.0787401574803157
100
AcDbArc
 50
0.0
 51
90.0
  0
LINE
  5
EA
330
1F
100
AcDbEntity
  8
0
  6
Continuous
 62
     7
370
    25
100
AcDbLine
 10
7.5166087983
 20
6.3147418253
 30
0.0
 11
7.3591284575
 21
6.3147418253
 31
0.0
  0
LINE
  5
EB
330
1F
100
AcDbEntity
  8
0
  6
Continuous
 62
     7
370
    25
100
AcDbLine
 10
7.3591284575
 20
6.3934819956
 30
0.0
 11
7.3591284575
 21
6.3147418253
 31
0.0
  0
LINE
  5
EC
330
1F
100
AcDbEntity
  8
0
  6
Continuous
 62
     7
370
    25
100
AcDbLine
 10
7.3591284575
 20
5.3698599181
 30
0.0
 11
7.3591284575
 21
6.3147418253
 31
0.0
  0
LINE
  5
ED
330
1F
100
AcDbEntity
  8
0
  6
Continuous
 62
     7
370
    25
100
AcDbLine
 10
7.5166087983
 20
6.3147418253
 30
0.0
 11
7.5166087983
 21
5.3698599181
 31
0.0
  0
LINE
  5
EE
330
1F
100
AcDbEntity
  8
0
  6
Continuous
 62
     7
370
    25
100
AcDbLine
 10
7.5166087983
 20
5.3698599181
 30
0.0
 11
7.3591284575
 21
5.3698599181
 31
0.0
  0
LINE
  5
EF
330
1F
100
AcDbEntity
  8
0
  6
Continuous
 62
     7
370
    25
100
AcDbLine
 10
2.3197581395
 20
6.3934819956
 30
0.0
 11
7.3591284575
 21
6.3934819956
 31
0.0
  0
LINE
  5
F0
330
1F
100
AcDbEntity
  8
0
  6
Continuous
 62
     7
370
    25
100
AcDbLine
 10
7.3591284575
 20
6.3147418253
 30
0.0
 11
2.3197581395
 21
6.3147418253
 31
0.0
  0
LINE
  5
F1
330
1F
100
AcDbEntity
  8
0
  6
Continuous
 62
     7
370
    25
100
AcDbLine
 10
2.3197581395
 20
6.3934819956
 30
0.0
 11
2.3197581395
 21
6.3147418253
 31
0.0
  0
LINE
  5
F2
330
1F
100
AcDbEntity
  8
0
  6
Continuous
 62
     7
370
    25
100
AcDbLine
 10
2.2410181157
 20
6.3934819956
 30
0.0
 11
2.3197581395
 21
6.3934819956
 31
0.0
  0
LINE
  5
F3
330
1F
100
AcDbEntity
  8
0
  6
Continuous
 62
     7
370
    25
100
AcDbLine
 10
2.3197581395
 20
6.3147418253
 30
0.0
 11
2.1622777987
 21
6.3147418253
 31
0.0
  0
ARC
  5
F4
330
1F
100
AcDbEntity
  8
0
  6
Continuous
 62
     7
370
    25
100
AcDbCircle
 10
2.2410181017
 20
6.3147418111
 30
0.0
 40
0.0787401574803157
100
AcDbArc
 50
89.9999999995
 51
180.0
  0
LINE
  5
F5
330
1F
100
AcDbEntity
  8
0
  6
Continuous
 62
     7
370
    25
100
AcDbLine
 10
2.1622777987
 20
5.3698599181
 30
0.0
 11
2.1622777987
 21
6.3147418253
 31
0.0
  0
LINE
  5
F6
330
1F
100
AcDbEntity
  8
0
  6
Continuous
 62
     7
370
    25
100
AcDbLine
 10
2.3197581395
 20
6.3147418253
 30
0.0
 11
2.3197581395
 21
5.3698599181
 31
0.0
  0
LINE
  5
F7
330
1F
100
AcDbEntity
  8
0
  6
Continuous
 62
     7
370
    25
100
AcDbLine
 10
2.3197581395
 20
5.3698599181
 30
0.0
 11
2.1622777987
 21
5.3698599181
 31
0.0
  0
LINE
  5
F8
330
1F
100
AcDbEntity
  8
0
  6
Continuous
 62
     7
370
    25
100
AcDbLine
 10
7.3591284575
 20
5.3698599181
 30
0.0
 11
2.3197581395
 21
5.3698599181
 31
0.0
  0
DIMENSION
  5
F9
330
1F
100
AcDbEntity
  8
0
  6
Continuous
 62
     7
370
    18
100
AcDbDimension
  2
_D
 10
7.5166086528
 20
4.9761591339
 30
0.0
 11
4.8394432985
 21
4.9761591339
 31
0.0
 70
   160
  1
<>
 71
     2
 42
-1.0
  3
SLDDIMSTYLE0
100
AcDbAlignedDimension
 13
2.1622779442
 23
5.3698599213
 33
0.0
 14
7.5166086528
 24
5.3698599213
 34
0.0
100
AcDbRotatedDimension
  0
DIMENSION
  5
105
330
1F
100
AcDbEntity
  8
0
  6
Continuous
 62
     7
370
    18
100
AcDbDimension
  2
_D_1
 10
7.9103094402
 20
6.3934819685
 30
0.0
 11
7.9103094402
 21
5.8816709449
 31
0.0
 70
   160
  1
<>
 71
     2
 42
-1.0
  3
SLDDIMSTYLE0
100
AcDbAlignedDimension
 13
7.5166086528
 23
5.3698599213
 33
0.0
 14
7.3591283379
 24
6.3934819685
 34
0.0
 50
90.0
100
AcDbRotatedDimension
  0
ARC
  5
110
330
1F
100
AcDbEntity
  8
0
  6
Continuous
 62
     7
370
    25
100
AcDbCircle
 10
7.3591283379
 20
10.1737339817
 30
0.0
 40
0.1574803149613819
100
AcDbArc
 50
0.0000000002
 51
90.0
  0
LINE
  5
111
330
1F
100
AcDbEntity
  8
0
  6
Continuous
 62
     7
370
    25
100
AcDbLine
 10
7.5166087983
 20
10.1737340133
 30
0.0
 11
7.4378684813
 21
10.1737340133
 31
0.0
  0
ARC
  5
112
330
1F
100
AcDbEntity
  8
0
  6
Continuous
 62
     7
370
    25
100
AcDbCircle
 10
7.3591283379
 20
10.1737339817
 30
0.0
 40
0.0787401574803166
100
AcDbArc
 50
0.0000000004
 51
90.0
  0
LINE
  5
113
330
1F
100
AcDbEntity
  8
0
  6
Continuous
 62
     7
370
    25
100
AcDbLine
 10
7.3591284575
 20
10.3312143541
 30
0.0
 11
7.3591284575
 21
10.2524741837
 31
0.0
  0
LINE
  5
114
330
1F
100
AcDbEntity
  8
0
  6
Continuous
 62
     7
370
    25
100
AcDbLine
 10
2.3197581395
 20
10.3312143541
 30
0.0
 11
7.3591284575
 21
10.3312143541
 31
0.0
  0
LINE
  5
115
330
1F
100
AcDbEntity
  8
0
  6
Continuous
 62
     7
370
    25
100
AcDbLine
 10
7.3591284575
 20
10.2524741837
 30
0.0
 11
2.3197581395
 21
10.2524741837
 31
0.0
  0
LINE
  5
116
330
1F
100
AcDbEntity
  8
0
  6
Continuous
 62
     7
370
    25
100
AcDbLine
 10
2.3197581395
 20
10.3312143541
 30
0.0
 11
2.3197581395
 21
10.2524741837
 31
0.0
  0
ARC
  5
117
330
1F
100
AcDbEntity
  8
0
  6
Continuous
 62
     7
370
    25
100
AcDbCircle
 10
2.3197582591
 20
10.1737339817
 30
0.0
 40
0.0787401574803166
100
AcDbArc
 50
89.9999999995
 51
180.0
  0
LINE
  5
118
330
1F
100
AcDbEntity
  8
0
  6
Continuous
 62
     7
370
    25
100
AcDbLine
 10
2.2410181157
 20
10.1737340133
 30
0.0
 11
2.1622777987
 21
10.1737340133
 31
0.0
  0
ARC
  5
119
330
1F
100
AcDbEntity
  8
0
  6
Continuous
 62
     7
370
    25
100
AcDbCircle
 10
2.3197582591
 20
10.1737339817
 30
0.0
 40
0.157480314964598
100
AcDbArc
 50
89.9999999997
 51
180.0
  0
CIRCLE
  5
11A
330
1F
100
AcDbEntity
  8
0
  6
Continuous
 62
     7
370
    25
100
AcDbCircle
 10
2.4308990979
 20
7.2603481549
 30
0.0
 40
0.1338582677165352
  0
CIRCLE
  5
11B
330
1F
100
AcDbEntity
  8
0
  6
Continuous
 62
     7
370
    25
100
AcDbCircle
 10
7.2479874991
 20
7.2603481549
 30
0.0
 40
0.1338582677165343
  0
CIRCLE
  5
11C
330
1F
100
AcDbEntity
  8
0
  6
Continuous
 62
     7
370
    25
100
AcDbCircle
 10
2.4308990979
 20
10.0162536667
 30
0.0
 40
0.1338582677165352
  0
CIRCLE
  5
11D
330
1F
100
AcDbEntity
  8
0
  6
Continuous
 62
     7
370
    25
100
AcDbCircle
 10
7.2479874991
 20
10.0162536667
 30
0.0
 40
0.133858267716537
  0
ARC
  5
11E
330
1F
100
AcDbEntity
  8
0
  6
Continuous
 62
     7
370
    25
100
AcDbCircle
 10
2.3197582591
 20
7.1028678399
 30
0.0
 40
0.0787401574803148
100
AcDbArc
 50
179.9999999985
 51
270.0
  0
LINE
  5
11F
330
1F
100
AcDbEntity
  8
0
  6
Continuous
 62
     7
370
    25
100
AcDbLine
 10
2.2410181157
 20
10.1737340133
 30
0.0
 11
2.2410181157
 21
7.1028678083
 31
0.0
  0
LINE
  5
120
330
1F
100
AcDbEntity
  8
0
  6
Continuous
 62
     7
370
    25
100
AcDbLine
 10
7.4378684813
 20
7.1028678083
 30
0.0
 11
7.4378684813
 21
10.1737340133
 31
0.0
  0
ARC
  5
121
330
1F
100
AcDbEntity
  8
0
  6
Continuous
 62
     7
370
    25
100
AcDbCircle
 10
7.3591283379
 20
7.1028678399
 30
0.0
 40
0.0787401574803148
100
AcDbArc
 50
269.9999999997
 51
0.0
  0
LINE
  5
122
330
1F
100
AcDbEntity
  8
0
  6
Continuous
 62
     7
370
    25
100
AcDbLine
 10
2.3197581395
 20
7.0241276379
 30
0.0
 11
7.3591284575
 21
7.0241276379
 31
0.0
  0
LINE
  5
123
330
1F
100
AcDbEntity
  8
0
  6
Continuous
 62
     7
370
    25
100
AcDbLine
 10
7.5166087983
 20
10.1737340133
 30
0.0
 11
7.5166087983
 21
7.1028678083
 31
0.0
  0
LINE
  5
124
330
1F
100
AcDbEntity
  8
0
  6
Continuous
 62
     7
370
    25
100
AcDbLine
 10
7.5166087983
 20
7.1028678083
 30
0.0
 11
7.4378684813
 21
7.1028678083
 31
0.0
  0
LINE
  5
125
330
1F
100
AcDbEntity
  8
0
  6
Continuous
 62
     7
370
    25
100
AcDbLine
 10
2.2410181157
 20
7.1028678083
 30
0.0
 11
2.1622777987
 21
7.1028678083
 31
0.0
  0
LINE
  5
126
330
1F
100
AcDbEntity
  8
0
  6
Continuous
 62
     7
370
    25
100
AcDbLine
 10
2.1622777987
 20
7.1028678083
 30
0.0
 11
2.1622777987
 21
10.1737340133
 31
0.0
  0
LINE
  5
127
330
1F
100
AcDbEntity
  8
0
  6
Continuous
 62
     7
370
    25
100
AcDbLine
 10
2.3197581395
 20
7.0241276379
 30
0.0
 11
2.3197581395
 21
6.9453874675
 31
0.0
  0
ARC
  5
128
330
1F
100
AcDbEntity
  8
0
  6
Continuous
 62
     7
370
    25
100
AcDbCircle
 10
2.3197582591
 20
7.1028678399
 30
0.0
 40
0.1574803149613815
100
AcDbArc
 50
179.9999999993
 51
270.0
  0
ARC
  5
129
330
1F
100
AcDbEntity
  8
0
  6
Continuous
 62
     7
370
    25
100
AcDbCircle
 10
7.3591283379
 20
7.1028678399
 30
0.0
 40
0.1574803149606296
100
AcDbArc
 50
269.9999999997
 51
0.0
  0
LINE
  5
12A
330
1F
100
AcDbEntity
  8
0
  6
Continuous
 62
     7
370
    25
100
AcDbLine
 10
7.3591284575
 20
7.0241276379
 30
0.0
 11
7.3591284575
 21
6.9453874675
 31
0.0
  0
LINE
  5
12B
330
1F
100
AcDbEntity
  8
0
  6
Continuous
 62
     7
370
    25
100
AcDbLine
 10
7.3591284575
 20
6.9453874675
 30
0.0
 11
2.3197581395
 21
6.9453874675
 31
0.0
  0
DIMENSION
  5
12C
330
1F
100
AcDbEntity
  8
0
  6
Continuous
 62
     7
370
    18
100
AcDbDimension
  2
_D_2
 10
7.9103094402
 20
6.945387525
 30
0.0
 11
7.9103094402
 21
8.6383009108
 31
0.0
 70
   160
  1
<>
 71
     2
 42
-1.0
  3
SLDDIMSTYLE0
100
AcDbAlignedDimension
 13
7.3591283379
 23
10.3312142966
 33
0.0
 14
7.3591283379
 24
6.945387525
 34
0.0
 50
90.0
100
AcDbRotatedDimension
  0
INSERT
  5
142
330
1F
100
AcDbEntity
  8
0
  6
Continuous
 62
     7
370
     0
100
AcDbBlockReference
  2
SW_CENTERMARKSYMBOL_0
 10
2.4308990979
 20
7.2603481549
 30
0.0
  0
INSERT
  5
14E
330
1F
100
AcDbEntity
  8
0
  6
Continuous
 62
     7
370
     0
100
AcDbBlockReference
  2
SW_CENTERMARKSYMBOL_1
 10
7.2479874991
 20
7.2603481549
 30
0.0
  0
INSERT
  5
15A
330
1F
100
AcDbEntity
  8
0
  6
Continuous
 62
     7
370
     0
100
AcDbBlockReference
  2
SW_CENTERMARKSYMBOL_2
 10
2.4308990979
 20
10.0162536667
 30
0.0
  0
INSERT
  5
166
330
1F
100
AcDbEntity
  8
0
  6
Continuous
 62
     7
370
     0
100
AcDbBlockReference
  2
SW_CENTERMARKSYMBOL_3
 10
7.2479874991
 20
10.0162536667
 30
0.0
  0
SPLINE
  5
167
330
1F
100
AcDbEntity
  8
0
  6
Continuous
 62
     7
370
    25
100
AcDbSpline
210
0.0
220
0.0
230
1.0
 70
     8
 71
     3
 72
    14
 73
    10
 74
     0
 42
0.000000001
 43
0.00000001
 40
0.0
 40
0.0
 40
0.0
 40
0.0
 40
0.1174643266467548
 40
0.2786050363146202
 40
0.4369731112287592
 40
0.5955042620730244
 40
0.7572244420792257
 40
0.925096130645218
 40
1.0
 40
1.0
 40
1.0
 40
1.0
 10
15.80882877051649
 20
7.116022400614106
 30
0.0
 10
15.80878330731766
 20
7.120886087748604
 30
0.0
 10
15.80867547648493
 20
7.132421911171869
 30
0.0
 10
15.80404196210488
 20
7.150036055404195
 30
0.0
 10
15.79608157750083
 20
7.168075627640783
 30
0.0
 10
15.78502229155773
 20
7.184411442900465
 30
0.0
 10
15.77122178106277
 20
7.198951533322793
 30
0.0
 10
15.75807358036155
 20
7.209205972233184
 30
0.0
 10
15.74946843554116
 20
7.214389205557739
 30
0.0
 10
15.74681347863806
 20
7.215988395505454
 30
0.0
  0
LINE
  5
168
330
1F
100
AcDbEntity
  8
0
  6
Continuous
 62
     7
370
    25
100
AcDbLine
 10
15.8092492019
 20
6.3441188772
 30
0.0
 11
15.8092492019
 21
7.1156535168
 31
0.0
  0
LINE
  5
169
330
1F
100
AcDbEntity
  8
0
  6
Continuous
 62
     7
370
    25
100
AcDbLine
 10
15.7468134786
 20
7.2159883955
 30
0.0
 11
12.1834405538
 21
9.2730797986
 31
0.0
  0
SPLINE
  5
16A
330
1F
100
AcDbEntity
  8
0
  6
Continuous
 62
     7
370
    25
100
AcDbSpline
210
0.0
220
0.0
230
1.0
 70
     8
 71
     3
 72
    14
 73
    10
 74
     0
 42
0.000000001
 43
0.00000001
 40
0.0
 40
0.0
 40
0.0
 40
0.0
 40
0.1267284493811697
 40
0.2986733428656023
 40
0.4633285492131093
 40
0.6229371603808282
 40
0.7794858515499414
 40
0.951471843019303
 40
1.0
 40
1.0
 40
1.0
 40
1.0
 10
9.821921208273444
 20
8.01953969864339
 30
0.0
 10
9.81743706350554
 20
8.01676457212582
 30
0.0
 10
9.806868840551159
 20
8.010224159788063
 30
0.0
 10
9.792362483616444
 20
7.997645765054121
 30
0.0
 10
9.779152663772583
 20
7.981959428789145
 30
0.0
 10
9.769069378679003
 20
7.964700914289593
 30
0.0
 10
9.762346479778438
 20
7.945604235576225
 30
0.0
 10
9.759195679004355
 20
7.930005070375959
 30
0.0
 10
9.759777723244989
 20
7.920850554209187
 30
0.0
 10
9.75990581268722
 20
7.918835936096261
 30
0.0
  0
LINE
  5
16B
330
1F
100
AcDbEntity
  8
0
  6
Continuous
 62
     7
370
    25
100
AcDbLine
 10
9.7594853813
 20
7.9192048798
 30
0.0
 11
9.7594853813
 21
7.1476702402
 31
0.0
  0
LINE
  5
16C
330
1F
100
AcDbEntity
  8
0
  6
Continuous
 62
     7
370
    25
100
AcDbLine
 10
11.993351526
 20
9.2730797387
 30
0.0
 11
9.8219212083
 21
8.0195396986
 31
0.0
  0
SPLINE
  5
16D
330
1F
100
AcDbEntity
  8
0
  6
Continuous
 62
     7
370
    25
100
AcDbSpline
210
0.0
220
0.0
230
1.0
 70
     8
 71
     3
 72
    16
 73
    12
 74
     0
 42
0.000000001
 43
0.00000001
 40
0.0
 40
0.0
 40
0.0
 40
0.0
 40
0.0794270593301331
 40
0.2010084651789835
 40
0.3239998359823876
 40
0.4475038866522936
 40
0.5714106180604067
 40
0.6966858904666817
 40
0.824378483505903
 40
0.9558695852400648
 40
1.0
 40
1.0
 40
1.0
 40
1.0
 10
12.18344055380119
 20
9.273079798592105
 30
0.0
 10
12.17896034220166
 20
9.275492854606512
 30
0.0
 10
12.16762213498494
 20
9.28159964856234
 30
0.0
 10
12.14772335432768
 20
9.288887941829804
 30
0.0
 10
12.12390319863263
 20
9.294478185149398
 30
0.0
 10
12.09905035636241
 20
9.297164249919854
 30
0.0
 10
12.07379098168388
 20
9.296940974542464
 30
0.0
 10
12.04860235679595
 20
9.293731035920048
 30
0.0
 10
12.02393466125104
 20
9.287344306688926
 30
0.0
 10
12.0056428016133
 20
9.279897881544093
 30
0.0
 10
11.99581985057605
 20
9.274448952949456
 30
0.0
 10
11.99335152601028
 20
9.27307973872287
 30
0.0
  0
ARC
  5
16E
330
1F
100
AcDbEntity
  8
0
  6
Continuous
 62
     7
370
    25
100
AcDbCircle
 10
13.4803384855
 20
6.0017236133
 30
0.0
 40
0.1210253586869089
100
AcDbArc
 50
242.6097286705
 51
297.3903329387
  0
ARC
  5
16F
330
1F
100
AcDbEntity
  8
0
  6
Continuous
 62
     7
370
    25
100
AcDbCircle
 10
13.4708103657
 20
5.7923282299
 30
0.0
 40
0.1210087534233697
100
AcDbArc
 50
2.6055996742
 51
57.3944620905
  0
ARC
  5
170
330
1F
100
AcDbEntity
  8
0
  6
Continuous
 62
     7
370
    25
100
AcDbCircle
 10
13.4803385952
 20
6.0115648095
 30
0.0
 40
0.2410038796218201
100
AcDbArc
 50
242.4806445532
 51
297.5193554468
  0
ARC
  5
171
330
1F
100
AcDbEntity
  8
0
  6
Continuous
 62
     7
370
    25
100
AcDbCircle
 10
13.4898665582
 20
5.7923283905
 30
0.0
 40
0.1210084800525774
100
AcDbArc
 50
122.6055292927
 51
177.3944705617
  0
ARC
  5
172
330
1F
100
AcDbEntity
  8
0
  6
Continuous
 62
     7
370
    25
100
AcDbCircle
 10
13.4803385952
 20
5.2400301699
 30
0.0
 40
0.2410038796218201
100
AcDbArc
 50
242.4806445532
 51
297.5193554468
  0
LINE
  5
173
330
1F
100
AcDbEntity
  8
0
  6
Continuous
 62
     7
370
    25
100
AcDbLine
 10
13.3689831783
 20
5.0262947233
 30
0.0
 11
13.3689831783
 21
5.7978293629
 31
0.0
  0
LINE
  5
174
330
1F
100
AcDbEntity
  8
0
  6
Continuous
 62
     7
370
    25
100
AcDbLine
 10
13.591694012
 20
5.7978293629
 30
0.0
 11
13.591694012
 21
5.0262947233
 31
0.0
  0
LINE
  5
175
330
1F
100
AcDbEntity
  8
0
  6
Continuous
 62
     7
370
    25
100
AcDbLine
 10
15.7631243298
 20
7.051369403
 30
0.0
 11
13.591694012
 21
5.7978293629
 31
0.0
  0
LINE
  5
176
330
1F
100
AcDbEntity
  8
0
  6
Continuous
 62
     7
370
    25
100
AcDbLine
 10
13.5360161999
 20
5.8942660423
 30
0.0
 11
15.7074465176
 21
7.1478060824
 31
0.0
  0
ARC
  5
177
330
1F
100
AcDbEntity
  8
0
  6
Continuous
 62
     7
370
    25
100
AcDbCircle
 10
15.6422406835
 20
7.04586827
 30
0.0
 40
0.1210087534233683
100
AcDbArc
 50
2.6055996742
 51
57.3944620905
  0
LWPOLYLINE
  5
178
330
1F
100
AcDbEntity
  8
0
  6
Continuous
 62
     7
370
    25
100
AcDbPolyline
 90
       35
 70
   128
 43
0.0
 10
10.0122574755
 20
7.9477738525
 10
10.0312615143
 20
7.93866391
 10
10.0528414475
 20
7.9317249457
 10
10.0762626088
 20
7.9271932037
 10
10.1007275891
 20
7.9252230868
 10
10.1254029926
 20
7.9258816484
 10
10.1494485786
 20
7.9291464975
 10
10.1720456778
 20
7.934906397
 10
10.1924245709
 20
7.942965335
 10
10.2098913491
 20
7.9530486915
 10
10.2238512482
 20
7.9648131162
 10
10.2338287679
 20
7.9778581439
 10
10.2394842652
 20
7.9917393652
 10
10.2406250509
 20
8.0059841724
 10
10.2372123385
 20
8.0201075049
 10
10.2293622805
 20
8.0336282536
 10
10.2173423395
 20
8.0460860838
 10
10.2015617463
 20
8.0570568819
 10
10.1825577075
 20
8.0661668245
 10
10.1609777743
 20
8.0731057887
 10
10.137556613
 20
8.0776375307
 10
10.1130917364
 20
8.0796075878
 10
10.0884163329
 20
8.0789490262
 10
10.0643706432
 20
8.075684237
 10
10.041773544
 20
8.0699243375
 10
10.0213946509
 20
8.0618655192
 10
10.0039278726
 20
8.0517821627
 10
9.9899679736
 20
8.0400176183
 10
9.9799904539
 20
8.0269725906
 10
9.9743350603
 20
8.0130913094
 10
9.9731942746
 20
7.9988465022
 10
9.9766068833
 20
7.9847232295
 10
9.9844569413
 20
7.9712024809
 10
9.9964768823
 20
7.9587446506
 10
10.0122574755
 20
7.9477738525
  0
LWPOLYLINE
  5
179
330
1F
100
AcDbEntity
  8
0
  6
Continuous
 62
     7
370
    25
100
AcDbPolyline
 90
       35
 70
   128
 43
0.0
 10
13.4184533529
 20
5.9814188275
 10
13.4374573917
 20
5.972308885
 10
13.4590373249
 20
5.9653699208
 10
13.4824584862
 20
5.9608381788
 10
13.5069233628
 20
5.9588681217
 10
13.5315987663
 20
5.9595266833
 10
13.555644456
 20
5.9627914725
 10
13.5782415552
 20
5.968551372
 10
13.598620552
 20
5.9766102502
 10
13.6160873303
 20
5.9866936066
 10
13.6300471256
 20
5.9984580912
 10
13.6400246453
 20
6.0115031189
 10
13.6456800389
 20
6.0253844001
 10
13.6468208246
 20
6.0396292073
 10
13.6434082159
 20
6.05375248
 10
13.6355581579
 20
6.0672732286
 10
13.6235382169
 20
6.0797310588
 10
13.6077576237
 20
6.090701857
 10
13.5887535849
 20
6.0998117995
 10
13.5671736517
 20
6.1067507637
 10
13.5437524904
 20
6.1112825057
 10
13.51928751
 20
6.1132526227
 10
13.4946121066
 20
6.1125940611
 10
13.4705665206
 20
6.109329212
 10
13.4479694214
 20
6.1035693125
 10
13.427590632
 20
6.0955104343
 10
13.4101238538
 20
6.0854270779
 10
13.396163851
 20
6.0736625933
 10
13.3861863313
 20
6.0606175656
 10
13.380530834
 20
6.0467363443
 10
13.3793900483
 20
6.0324915371
 10
13.3828027607
 20
6.0183682045
 10
13.3906528187
 20
6.0048474559
 10
13.4026727597
 20
5.9923896257
 10
13.4184533529
 20
5.9814188275
  0
LWPOLYLINE
  5
17A
330
1F
100
AcDbEntity
  8
0
  6
Continuous
 62
     7
370
    25
100
AcDbPolyline
 90
       35
 70
   128
 43
0.0
 10
11.9609769595
 20
9.0727456649
 10
11.9799809983
 20
9.0636357224
 10
12.0015609315
 20
9.0566967582
 10
12.0249820928
 20
9.0521650162
 10
12.0494470732
 20
9.0501948992
 10
12.0741224766
 20
9.0508534608
 10
12.0981680626
 20
9.0541183099
 10
12.1207651618
 20
9.0598782094
 10
12.1411439512
 20
9.0679370876
 10
12.1586107294
 20
9.078020444
 10
12.1725707322
 20
9.0897849286
 10
12.1825482519
 20
9.1028299563
 10
12.1882037492
 20
9.1167111776
 10
12.189344535
 20
9.1309559848
 10
12.1859318225
 20
9.1450793174
 10
12.1780817645
 20
9.158600066
 10
12.1660618235
 20
9.1710578962
 10
12.1502812304
 20
9.1820286944
 10
12.1312771915
 20
9.1911386369
 10
12.1096972583
 20
9.1980776011
 10
12.086276097
 20
9.2026093431
 10
12.0618112204
 20
9.2045794002
 10
12.0371358169
 20
9.2039208386
 10
12.0130901272
 20
9.2006560494
 10
11.990493028
 20
9.1948961499
 10
11.9701140312
 20
9.1868372717
 10
11.9526472529
 20
9.1767539153
 10
11.9386874576
 20
9.1649894307
 10
11.9287099379
 20
9.151944403
 10
11.9230545443
 20
9.1380631218
 10
11.9219137586
 20
9.1238183146
 10
11.9253263673
 20
9.1096950419
 10
11.9331764253
 20
9.0961742933
 10
11.9451963663
 20
9.0837164631
 10
11.9609769595
 20
9.0727456649
  0
LWPOLYLINE
  5
17B
330
1F
100
AcDbEntity
  8
0
  6
Continuous
 62
     7
370
    25
100
AcDbPolyline
 90
       35
 70
   128
 43
0.0
 10
15.3671728369
 20
7.10639064
 10
15.3861768757
 20
7.0972806974
 10
15.4077568089
 20
7.0903417332
 10
15.4311779702
 20
7.0858099912
 10
15.4556428468
 20
7.0838399341
 10
15.4803182503
 20
7.0844984957
 10
15.50436394
 20
7.0877632849
 10
15.5269610392
 20
7.0935231844
 10
15.5473399323
 20
7.1015820027
 10
15.5648067106
 20
7.1116653592
 10
15.5787666096
 20
7.1234299036
 10
15.5887441293
 20
7.1364749313
 10
15.5943995229
 20
7.1503562125
 10
15.5955403086
 20
7.1646010197
 10
15.5921276999
 20
7.1787242924
 10
15.5842776419
 20
7.192245041
 10
15.5722577009
 20
7.2047028713
 10
15.5564771078
 20
7.2156736694
 10
15.5374730689
 20
7.2247836119
 10
15.5158931357
 20
7.2317225762
 10
15.4924719744
 20
7.2362543182
 10
15.4680069941
 20
7.2382244351
 10
15.4433315906
 20
7.2375658735
 10
15.4192860046
 20
7.2343010244
 10
15.3966889054
 20
7.2285411249
 10
15.3763100123
 20
7.2204821869
 10
15.3588432341
 20
7.2103988304
 10
15.344883335
 20
7.1986344057
 10
15.3349058153
 20
7.185589378
 10
15.329250318
 20
7.1717081567
 10
15.3281095323
 20
7.1574633495
 10
15.3315222447
 20
7.143340017
 10
15.3393723027
 20
7.1298192683
 10
15.3513922437
 20
7.1173614381
 10
15.3671728369
 20
7.10639064
  0
ARC
  5
17C
330
1F
100
AcDbEntity
  8
0
  6
Continuous
 62
     7
370
    25
100
AcDbCircle
 10
9.8734870326
 20
7.9834993928
 30
0.0
 40
0.0343791500889967
100
AcDbArc
 50
110.7834059395
 51
249.2164091929
  0
LINE
  5
17D
330
1F
100
AcDbEntity
  8
0
  6
Continuous
 62
     7
370
    25
100
AcDbLine
 10
12.0327183833
 20
9.2691814796
 30
0.0
 11
9.8612880656
 21
8.0156414395
 31
0.0
  0
ARC
  5
17E
330
1F
100
AcDbEntity
  8
0
  6
Continuous
 62
     7
370
    25
100
AcDbCircle
 10
12.0883960977
 20
9.1617239086
 30
0.0
 40
0.1210253586868978
100
AcDbArc
 50
62.6097286705
 51
117.3903329387
  0
LINE
  5
17F
330
1F
100
AcDbEntity
  8
0
  6
Continuous
 62
     7
370
    25
100
AcDbLine
 10
15.7074466213
 20
7.2120901364
 30
0.0
 11
12.1440736965
 21
9.2691815394
 31
0.0
  0
ARC
  5
180
330
1F
100
AcDbEntity
  8
0
  6
Continuous
 62
     7
370
    25
100
AcDbCircle
 10
15.6952475506
 20
7.1799481291
 30
0.0
 40
0.0343791500889967
100
AcDbArc
 50
290.7834059395
 51
69.2164091929
  0
LINE
  5
181
330
1F
100
AcDbEntity
  8
0
  6
Continuous
 62
     7
370
    25
100
AcDbLine
 10
9.8612879619
 20
7.9513573855
 30
0.0
 11
13.4246608867
 21
5.8942659825
 31
0.0
  0
LINE
  5
182
330
1F
100
AcDbEntity
  8
0
  6
Continuous
 62
     7
370
    25
100
AcDbLine
 10
13.3689831783
 20
5.7978293629
 30
0.0
 11
9.8056102535
 21
7.854920766
 31
0.0
  0
ARC
  5
183
330
1F
100
AcDbEntity
  8
0
  6
Continuous
 62
     7
370
    25
100
AcDbCircle
 10
9.9264936334
 20
7.8494197936
 30
0.0
 40
0.1210084800525814
100
AcDbArc
 50
122.6055292927
 51
177.3944705617
  0
LINE
  5
184
330
1F
100
AcDbEntity
  8
0
  6
Continuous
 62
     7
370
    25
100
AcDbLine
 10
15.7631243298
 20
6.2798347634
 30
0.0
 11
13.591694012
 21
5.0262947233
 31
0.0
  0
LINE
  5
185
330
1F
100
AcDbEntity
  8
0
  6
Continuous
 62
     7
370
    25
100
AcDbLine
 10
15.7631243298
 20
6.2798347634
 30
0.0
 11
15.7631243298
 21
7.051369403
 31
0.0
  0
LINE
  5
186
330
1F
100
AcDbEntity
  8
0
  6
Continuous
 62
     7
370
    25
100
AcDbLine
 10
13.3689831783
 20
5.0262947233
 30
0.0
 11
9.8056102535
 21
7.0833861264
 31
0.0
  0
LINE
  5
187
330
1F
100
AcDbEntity
  8
0
  6
Continuous
 62
     7
370
    25
100
AcDbLine
 10
9.8056102535
 20
7.854920766
 30
0.0
 11
9.8056102535
 21
7.0833861264
 31
0.0
  0
ARC
  5
188
330
1F
100
AcDbEntity
  8
0
  6
Continuous
 62
     7
370
    25
100
AcDbCircle
 10
15.7305293843
 20
6.3519118751
 30
0.0
 40
0.0791046174087388
100
AcDbArc
 50
294.3335886241
 51
354.346331302
  0
ARC
  5
189
330
1F
100
AcDbEntity
  8
0
  6
Continuous
 62
     7
370
    25
100
AcDbCircle
 10
9.8363009057
 20
7.1540968775
 30
0.0
 40
0.0770838923351329
100
AcDbArc
 50
184.7824142802
 51
246.5376657937
  0
ARC
  5
18A
330
1F
100
AcDbEntity
  8
0
  6
Continuous
 62
     8
370
    25
100
AcDbCircle
 10
15.7305801751
 20
7.1233863543
 30
0.0
 40
0.0790288762385309
100
AcDbArc
 50
294.3180087099
 51
354.5270633267
  0
ARC
  5
18B
330
1F
100
AcDbEntity
  8
0
  6
Continuous
 62
     8
370
    25
100
AcDbCircle
 10
15.730518423
 20
7.1798744581
 30
0.0
 40
0.0396252187190529
100
AcDbArc
 50
65.7914260873
 51
125.6089839481
  0
ARC
  5
18C
330
1F
100
AcDbEntity
  8
0
  6
Continuous
 62
     8
370
    25
100
AcDbCircle
 10
12.1671382701
 20
9.2369859277
 30
0.0
 40
0.0396046963155809
100
AcDbArc
 50
65.6930433236
 51
125.6173851892
  0
ARC
  5
18D
330
1F
100
AcDbEntity
  8
0
  6
Continuous
 62
     8
370
    25
100
AcDbCircle
 10
9.8363498978
 20
7.9256861728
 30
0.0
 40
0.0771535387497831
100
AcDbArc
 50
184.9644666793
 51
246.5204513949
  0
ARC
  5
18E
330
1F
100
AcDbEntity
  8
0
  6
Continuous
 62
     8
370
    25
100
AcDbCircle
 10
9.8384593389
 20
7.9858194461
 30
0.0
 40
0.0375566512535941
100
AcDbArc
 50
52.5659551911
 51
116.1446436701
  0
ARC
  5
18F
330
1F
100
AcDbEntity
  8
0
  6
Continuous
 62
     8
370
    25
100
AcDbCircle
 10
12.009653848
 20
9.2369862546
 30
0.0
 40
0.0396043595839833
100
AcDbArc
 50
54.3823339823
 51
114.3072375048
  0
ARC
  5
190
330
1F
100
AcDbEntity
  8
0
  6
Continuous
 62
     7
370
    25
100
AcDbCircle
 10
2.3197582591
 20
4.506771742
 30
0.0
 40
0.1574803149613815
100
AcDbArc
 50
90.0
 51
180.0000000007
  0
LINE
  5
191
330
1F
100
AcDbEntity
  8
0
  6
Continuous
 62
     7
370
    25
100
AcDbLine
 10
7.3591284575
 20
4.6642521145
 30
0.0
 11
2.3197581395
 21
4.6642521145
 31
0.0
  0
ARC
  5
192
330
1F
100
AcDbEntity
  8
0
  6
Continuous
 62
     7
370
    25
100
AcDbCircle
 10
7.3591283379
 20
4.506771742
 30
0.0
 40
0.1574803149606296
100
AcDbArc
 50
0.0
 51
90.0000000003
  0
LINE
  5
193
330
1F
100
AcDbEntity
  8
0
  6
Continuous
 62
     7
370
    25
100
AcDbLine
 10
7.5166087983
 20
1.4359055686
 30
0.0
 11
7.5166087983
 21
4.5067717737
 31
0.0
  0
ARC
  5
194
330
1F
100
AcDbEntity
  8
0
  6
Continuous
 62
     7
370
    25
100
AcDbCircle
 10
7.3591283379
 20
1.4359056003
 30
0.0
 40
0.1574803149613819
100
AcDbArc
 50
270.0
 51
359.9999999998
  0
LINE
  5
195
330
1F
100
AcDbEntity
  8
0
  6
Continuous
 62
     7
370
    25
100
AcDbLine
 10
2.3197581395
 20
1.2784252279
 30
0.0
 11
7.3591284575
 21
1.2784252279
 31
0.0
  0
ARC
  5
196
330
1F
100
AcDbEntity
  8
0
  6
Continuous
 62
     7
370
    25
100
AcDbCircle
 10
2.3197582591
 20
1.4359056003
 30
0.0
 40
0.1574803149645956
100
AcDbArc
 50
180.0
 51
270.0000000003
  0
LINE
  5
197
330
1F
100
AcDbEntity
  8
0
  6
Continuous
 62
     7
370
    25
100
AcDbLine
 10
2.1622777987
 20
4.5067717737
 30
0.0
 11
2.1622777987
 21
1.4359055686
 31
0.0
  0
ARC
  5
198
330
1F
100
AcDbEntity
  8
0
  6
Continuous
 62
     7
370
    25
100
AcDbCircle
 10
7.0441677079
 20
3.7408342137
 30
0.0
 40
0.1574803149606296
100
AcDbArc
 50
0.0
 51
14.9999999999
  0
LINE
  5
199
330
1F
100
AcDbEntity
  8
0
  6
Continuous
 62
     7
370
    25
100
AcDbLine
 10
7.0754430547
 20
4.2325700213
 30
0.0
 11
7.1962819388
 21
3.7815931244
 31
0.0
  0
ARC
  5
19A
330
1F
100
AcDbEntity
  8
0
  6
Continuous
 62
     7
370
    25
100
AcDbCircle
 10
6.9233288122
 20
4.1918111121
 30
0.0
 40
0.1574803149611342
100
AcDbArc
 50
14.9999999999
 51
90.0
  0
LINE
  5
19B
330
1F
100
AcDbEntity
  8
0
  6
Continuous
 62
     7
370
    25
100
AcDbLine
 10
6.9233287453
 20
4.3492914329
 30
0.0
 11
2.7555578517
 21
4.3492914329
 31
0.0
  0
ARC
  5
19C
330
1F
100
AcDbEntity
  8
0
  6
Continuous
 62
     7
370
    25
100
AcDbCircle
 10
2.7555577848
 20
4.1918111121
 30
0.0
 40
0.1574803149606296
100
AcDbArc
 50
90.0
 51
164.9999999999
  0
LINE
  5
19D
330
1F
100
AcDbEntity
  8
0
  6
Continuous
 62
     7
370
    25
100
AcDbLine
 10
2.4826046582
 20
3.7815931244
 30
0.0
 11
2.6034435423
 21
4.2325700213
 31
0.0
  0
ARC
  5
19E
330
1F
100
AcDbEntity
  8
0
  6
Continuous
 62
     7
370
    25
100
AcDbCircle
 10
2.6347188891
 20
3.7408342137
 30
0.0
 40
0.157480314961117
100
AcDbArc
 50
164.9999999999
 51
180.0
  0
LINE
  5
19F
330
1F
100
AcDbEntity
  8
0
  6
Continuous
 62
     7
370
    25
100
AcDbLine
 10
2.4772386269
 20
3.7408341952
 30
0.0
 11
2.4772386269
 21
2.2018431471
 31
0.0
  0
ARC
  5
1A0
330
1F
100
AcDbEntity
  8
0
  6
Continuous
 62
     7
370
    25
100
AcDbCircle
 10
2.6347188891
 20
2.2018431287
 30
0.0
 40
0.1574803149606296
100
AcDbArc
 50
180.0
 51
195.0
  0
LINE
  5
1A1
330
1F
100
AcDbEntity
  8
0
  6
Continuous
 62
     7
370
    25
100
AcDbLine
 10
2.6034435423
 20
1.710107321
 30
0.0
 11
2.4826046582
 21
2.161084218
 31
0.0
  0
ARC
  5
1A2
330
1F
100
AcDbEntity
  8
0
  6
Continuous
 62
     7
370
    25
100
AcDbCircle
 10
2.7555577848
 20
1.7508662302
 30
0.0
 40
0.1574803149606301
100
AcDbArc
 50
195.0
 51
270.0
  0
LINE
  5
1A3
330
1F
100
AcDbEntity
  8
0
  6
Continuous
 62
     7
370
    25
100
AcDbLine
 10
2.7555578517
 20
1.5933859094
 30
0.0
 11
6.9233287453
 21
1.5933859094
 31
0.0
  0
ARC
  5
1A4
330
1F
100
AcDbEntity
  8
0
  6
Continuous
 62
     7
370
    25
100
AcDbCircle
 10
6.9233288122
 20
1.7508662302
 30
0.0
 40
0.1574803149612039
100
AcDbArc
 50
270.0
 51
345.0
  0
LINE
  5
1A5
330
1F
100
AcDbEntity
  8
0
  6
Continuous
 62
     7
370
    25
100
AcDbLine
 10
7.1962819388
 20
2.161084218
 30
0.0
 11
7.0754430547
 21
1.710107321
 31
0.0
  0
ARC
  5
1A6
330
1F
100
AcDbEntity
  8
0
  6
Continuous
 62
     7
370
    25
100
AcDbCircle
 10
7.0441677079
 20
2.2018431287
 30
0.0
 40
0.1574803149606296
100
AcDbArc
 50
345.0
 51
0.0
  0
LINE
  5
1A7
330
1F
100
AcDbEntity
  8
0
  6
Continuous
 62
     7
370
    25
100
AcDbLine
 10
7.2016479701
 20
2.2018431471
 30
0.0
 11
7.2016479701
 21
2.4988977222
 31
0.0
  0
ARC
  5
1A8
330
1F
100
AcDbEntity
  8
0
  6
Continuous
 62
     7
370
    25
100
AcDbCircle
 10
7.0441677079
 20
2.4988977263
 30
0.0
 40
0.1574803149606302
100
AcDbArc
 50
0.0
 51
53.130102354
  0
ARC
  5
1A9
330
1F
100
AcDbEntity
  8
0
  6
Continuous
 62
     7
370
    25
100
AcDbCircle
 10
7.2803881804
 20
2.8138583562
 30
0.0
 40
0.236220472440945
100
AcDbArc
 50
180.0
 51
233.130102354
  0
LINE
  5
1AA
330
1F
100
AcDbEntity
  8
0
  6
Continuous
 62
     7
370
    25
100
AcDbLine
 10
7.044167776
 20
3.1288189936
 30
0.0
 11
7.044167776
 21
2.8138583487
 31
0.0
  0
ARC
  5
1AB
330
1F
100
AcDbEntity
  8
0
  6
Continuous
 62
     7
370
    25
100
AcDbCircle
 10
7.2803881804
 20
3.1288189861
 30
0.0
 40
0.2362204724409446
100
AcDbArc
 50
126.869897646
 51
180.0
  0
ARC
  5
1AC
330
1F
100
AcDbEntity
  8
0
  6
Continuous
 62
     7
370
    25
100
AcDbCircle
 10
7.0441677079
 20
3.4437796161
 30
0.0
 40
0.1574803149606305
100
AcDbArc
 50
306.869897646
 51
0.0
  0
LINE
  5
1AD
330
1F
100
AcDbEntity
  8
0
  6
Continuous
 62
     7
370
    25
100
AcDbLine
 10
7.2016479701
 20
3.4437796202
 30
0.0
 11
7.2016479701
 21
3.7408341952
 31
0.0
  0
CIRCLE
  5
1AE
330
1F
100
AcDbEntity
  8
0
  6
Continuous
 62
     7
370
    25
100
AcDbCircle
 10
2.4308990979
 20
4.3492914271
 30
0.0
 40
0.1338582677165361
  0
CIRCLE
  5
1AF
330
1F
100
AcDbEntity
  8
0
  6
Continuous
 62
     7
370
    25
100
AcDbCircle
 10
7.2479874991
 20
4.3492914271
 30
0.0
 40
0.1338582677165352
  0
CIRCLE
  5
1B0
330
1F
100
AcDbEntity
  8
0
  6
Continuous
 62
     7
370
    25
100
AcDbCircle
 10
2.4308990979
 20
1.5933859153
 30
0.0
 40
0.1338582677165352
  0
CIRCLE
  5
1B1
330
1F
100
AcDbEntity
  8
0
  6
Continuous
 62
     7
370
    25
100
AcDbCircle
 10
7.2479874991
 20
1.5933859153
 30
0.0
 40
0.1338582677165354
  0
LINE
  5
1B2
330
1F
100
AcDbEntity
  8
0
  6
Continuous
 62
     7
370
    25
100
AcDbLine
 10
7.3591284575
 20
2.8138583487
 30
0.0
 11
7.3591284575
 21
3.1288189936
 31
0.0
  0
SPLINE
  5
1B3
330
1F
100
AcDbEntity
  8
0
  6
Continuous
 62
     7
370
    25
100
AcDbSpline
210
0.0
220
0.0
230
1.0
 70
     8
 71
     3
 72
    22
 73
    18
 74
     0
 42
0.000000001
 43
0.00000001
 40
0.0
 40
0.0
 40
0.0
 40
0.0
 40
0.125
 40
0.125
 40
0.25
 40
0.25
 40
0.375
 40
0.375
 40
0.5
 40
0.5
 40
0.625
 40
0.625
 40
0.75
 40
0.75
 40
0.875
 40
0.875
 40
1.0
 40
1.0
 40
1.0
 40
1.0
 10
7.359128337870168
 20
3.128818986133312
 30
0.0
 10
7.359128337870169
 20
3.135380665923339
 30
0.0
 10
7.358330437607703
 20
3.142803238101816
 30
0.0
 10
7.353627025534211
 20
3.158929222353785
 30
0.0
 10
7.349679518972531
 20
3.167664130490268
 30
0.0
 10
7.337081093775679
 20
3.184462030752735
 30
0.0
 10
7.328340663838072
 20
3.192483173438619
 30
0.0
 10
7.306544080452518
 20
3.204108017910915
 30
0.0
 10
7.293511539969906
 20
3.207559143613627
 30
0.0
 10
7.267264820809801
 20
3.207559143613627
 30
0.0
 10
7.254232280327189
 20
3.204108017910915
 30
0.0
 10
7.232435696941634
 20
3.192483173438619
 30
0.0
 10
7.223695267004027
 20
3.184462030752735
 30
0.0
 10
7.211096841807176
 20
3.167664130490268
 30
0.0
 10
7.207149335245497
 20
3.158929222353785
 30
0.0
 10
7.202445923172005
 20
3.142803238101817
 30
0.0
 10
7.201648022909538
 20
3.135380665923339
 30
0.0
 10
7.201648022909538
 20
3.128818986133312
 30
0.0
  0
LINE
  5
1B4
330
1F
100
AcDbEntity
  8
0
  6
Continuous
 62
     7
370
    25
100
AcDbLine
 10
7.2016479701
 20
3.1288189936
 30
0.0
 11
7.2016479701
 21
2.8138583487
 31
0.0
  0
SPLINE
  5
1B5
330
1F
100
AcDbEntity
  8
0
  6
Continuous
 62
     7
370
    25
100
AcDbSpline
210
0.0
220
0.0
230
1.0
 70
     8
 71
     3
 72
    22
 73
    18
 74
     0
 42
0.000000001
 43
0.00000001
 40
0.0
 40
0.0
 40
0.0
 40
0.0
 40
0.125
 40
0.125
 40
0.25
 40
0.25
 40
0.375
 40
0.375
 40
0.5
 40
0.5
 40
0.625
 40
0.625
 40
0.75
 40
0.75
 40
0.875
 40
0.875
 40
1.0
 40
1.0
 40
1.0
 40
1.0
 10
7.201648022909538
 20
2.813858356212052
 30
0.0
 10
7.201648022909538
 20
2.807296676422026
 30
0.0
 10
7.202445923172005
 20
2.799874104243548
 30
0.0
 10
7.207149335245496
 20
2.78374811999158
 30
0.0
 10
7.211096841807176
 20
2.775013211855097
 30
0.0
 10
7.223695267004027
 20
2.75821531159263
 30
0.0
 10
7.232435696941634
 20
2.750194168906746
 30
0.0
 10
7.254232280327189
 20
2.73856932443445
 30
0.0
 10
7.267264820809801
 20
2.735118198731738
 30
0.0
 10
7.293511539969906
 20
2.735118198731738
 30
0.0
 10
7.306544080452518
 20
2.73856932443445
 30
0.0
 10
7.328340663838072
 20
2.750194168906746
 30
0.0
 10
7.337081093775679
 20
2.75821531159263
 30
0.0
 10
7.349679518972531
 20
2.775013211855097
 30
0.0
 10
7.353627025534211
 20
2.78374811999158
 30
0.0
 10
7.358330437607703
 20
2.799874104243548
 30
0.0
 10
7.359128337870169
 20
2.807296676422026
 30
0.0
 10
7.359128337870168
 20
2.813858356212052
 30
0.0
  0
LINE
  5
1B6
330
1F
100
AcDbEntity
  8
0
  6
Continuous
 62
     8
370
    25
100
AcDbLine
 10
7.3591284575
 20
2.8138583487
 30
0.0
 11
7.2016479701
 21
2.8138583487
 31
0.0
  0
LINE
  5
1B7
330
1F
100
AcDbEntity
  8
0
  6
Continuous
 62
     8
370
    25
100
AcDbLine
 10
7.3591284575
 20
3.1288189936
 30
0.0
 11
7.2016479701
 21
3.1288189936
 31
0.0
  0
DIMENSION
  5
1B8
330
1F
100
AcDbEntity
  8
0
  6
Continuous
 62
     7
370
    18
100
AcDbDimension
  2
_D_3
 10
7.1614076417
 20
4.4513794485
 30
0.0
 11
9.0698750425
 21
3.5126337769
 31
0.0
 70
   163
  1
4X <> THRU ALL\PFOR M3 CLEARANCE
 71
     1
 42
-1.0
  3
SLDDIMSTYLE1
100
AcDbDiametricDimension
 15
7.3345673566
 25
4.2472034056
 35
0.0
 40
0.0
  0
INSERT
  5
1CF
330
1F
100
AcDbEntity
  8
0
  6
Continuous
 62
     7
370
     0
100
AcDbBlockReference
  2
SW_CENTERMARKSYMBOL_4
 10
2.4308990979
 20
4.3492914271
 30
0.0
  0
INSERT
  5
1DB
330
1F
100
AcDbEntity
  8
0
  6
Continuous
 62
     7
370
     0
100
AcDbBlockReference
  2
SW_CENTERMARKSYMBOL_5
 10
7.2479874991
 20
4.3492914271
 30
0.0
  0
INSERT
  5
1E7
330
1F
100
AcDbEntity
  8
0
  6
Continuous
 62
     7
370
     0
100
AcDbBlockReference
  2
SW_CENTERMARKSYMBOL_6
 10
2.4308990979
 20
1.5933859153
 30
0.0
  0
INSERT
  5
1F3
330
1F
100
AcDbEntity
  8
0
  6
Continuous
 62
     7
370
     0
100
AcDbBlockReference
  2
SW_CENTERMARKSYMBOL_7
 10
7.2479874991
 20
1.5933859153
 30
0.0
  0
ENDSEC
  0
SECTION
  2
OBJECTS
  0
DICTIONARY
  5
C
330
0
100
AcDbDictionary
281
     1
  3
ACAD_GROUP
350
D
  3
ACAD_LAYOUT
350
1A
  3
ACAD_MLINESTYLE
350
17
  3
ACAD_PLOTSETTINGS
350
19
  3
ACAD_PLOTSTYLENAME
350
E
  3
ACAD_SCALELIST
350
47
  0
DICTIONARY
  5
D
102
{ACAD_REACTORS
330
C
102
}
330
C
100
AcDbDictionary
281
     1
  0
DICTIONARY
  5
1A
102
{ACAD_REACTORS
330
C
102
}
330
C
100
AcDbDictionary
281
     1
  3
Layout1
350
1E
  3
Layout2
350
26
  3
Model
350
22
  0
DICTIONARY
  5
17
102
{ACAD_REACTORS
330
C
102
}
330
C
100
AcDbDictionary
281
     1
  3
Standard
350
18
  0
DICTIONARY
  5
19
102
{ACAD_REACTORS
330
C
102
}
330
C
100
AcDbDictionary
281
     1
  0
ACDBDICTIONARYWDFLT
  5
E
102
{ACAD_REACTORS
330
C
102
}
330
C
100
AcDbDictionary
281
     1
  3
Normal
350
F
100
AcDbDictionaryWithDefault
340
F
  0
DICTIONARY
  5
47
102
{ACAD_REACTORS
330
C
102
}
330
C
100
AcDbDictionary
281
     1
  3
A0
350
48
  3
A1
350
49
  3
A2
350
4A
  3
A3
350
4B
  3
A4
350
4C
  3
A5
350
4D
  3
A6
350
4E
  3
A7
350
4F
  3
A8
350
50
  3
A9
350
51
  3
B0
350
52
  3
B1
350
53
  3
B2
350
54
  3
B3
350
55
  3
B4
350
56
  3
B5
350
57
  3
B6
350
58
  3
B7
350
59
  3
B8
350
5A
  3
B9
350
5B
  3
C0
350
5C
  3
C1
350
5D
  3
C2
350
5E
  3
C3
350
5F
  3
C4
350
60
  3
C5
350
61
  3
C6
350
62
  3
C7
350
63
  3
C8
350
64
  3
C9
350
65
  3
D0
350
66
  3
D1
350
67
  3
D2
350
68
  0
LAYOUT
  5
1E
102
{ACAD_REACTORS
330
1A
102
}
330
1A
100
AcDbPlotSettings
  1

  2
none_device
  4

  6

 40
0.0
 41
0.0
 42
0.0
 43
0.0
 44
0.0
 45
0.0
 46
0.0
 47
0.0
 48
0.0
 49
0.0
140
0.0
141
0.0
142
1.0
143
1.0
 70
   688
 72
     0
 73
     0
 74
     5
  7

 75
    16
147
1.0
148
0.0
149
0.0
100
AcDbLayout
  1
Layout1
 70
     1
 71
     1
 10
0.0
 20
0.0
 11
12.0
 21
9.0
 12
0.0
 22
0.0
 32
0.0
 14
1.0000000000E+20
 24
1.0000000000E+20
 34
1.0000000000E+20
 15
-1.0000000000E+20
 25
-1.0000000000E+20
 35
-1.0000000000E+20
146
0.0
 13
0.0
 23
0.0
 33
0.0
 16
1.0
 26
0.0
 36
0.0
 17
0.0
 27
1.0
 37
0.0
 76
     0
330
1B
  0
LAYOUT
  5
26
102
{ACAD_REACTORS
330
1A
102
}
330
1A
100
AcDbPlotSettings
  1

  2
none_device
  4

  6

 40
0.0
 41
0.0
 42
0.0
 43
0.0
 44
0.0
 45
0.0
 46
0.0
 47
0.0
 48
0.0
 49
0.0
140
0.0
141
0.0
142
1.0
143
1.0
 70
   688
 72
     0
 73
     0
 74
     5
  7

 75
    16
147
1.0
148
0.0
149
0.0
100
AcDbLayout
  1
Layout2
 70
     1
 71
     2
 10
0.0
 20
0.0
 11
0.0
 21
0.0
 12
0.0
 22
0.0
 32
0.0
 14
0.0
 24
0.0
 34
0.0
 15
0.0
 25
0.0
 35
0.0
146
0.0
 13
0.0
 23
0.0
 33
0.0
 16
1.0
 26
0.0
 36
0.0
 17
0.0
 27
1.0
 37
0.0
 76
     0
330
23
  0
LAYOUT
  5
22
102
{ACAD_REACTORS
330
1A
102
}
330
1A
100
AcDbPlotSettings
  1

  2
none_device
  4
Letter_(8.50_x_11.00_Inches)
  6

 40
6.35
 41
6.35
 42
6.35000508
 43
6.35000508
 44
215.9
 45
279.4
 46
0.0
 47
0.0
 48
0.0
 49
0.0
140
0.0
141
0.0
142
1.0
143
1.0
 70
  1712
 72
     0
 73
     0
 74
     0
  7

 75
     0
147
1.0
148
0.0
149
0.0
100
AcDbLayout
  1
Model
 70
     1
 71
     0
 10
0.0
 20
0.0
 11
17.0
 21
11.0
 12
0.0
 22
0.0
 32
0.0
 14
0.0
 24
0.0
 34
0.0
 15
17.0
 25
11.0
 35
0.0
146
0.0
 13
0.0
 23
0.0
 33
0.0
 16
1.0
 26
0.0
 36
0.0
 17
0.0
 27
1.0
 37
0.0
 76
     0
330
1F
331
29
  0
MLINESTYLE
  5
18
102
{ACAD_REACTORS
330
17
102
}
330
17
100
AcDbMlineStyle
  2
Standard
 70
     0
  3

 62
   256
 51
90.0
 52
90.0
 71
     2
 49
0.5
 62
   256
  6
BYLAYER
 49
-0.5
 62
   256
  6
BYLAYER
  0
ACDBPLACEHOLDER
  5
F
102
{ACAD_REACTORS
330
E
102
}
330
E
  0
SCALE
  5
48
102
{ACAD_REACTORS
330
47
102
}
330
47
100
AcDbScale
 70
     0
300
1:1
140
1.0
141
1.0
290
     1
  0
SCALE
  5
49
102
{ACAD_REACTORS
330
47
102
}
330
47
100
AcDbScale
 70
     0
300
1:2
140
1.0
141
2.0
290
     0
  0
SCALE
  5
4A
102
{ACAD_REACTORS
330
47
102
}
330
47
100
AcDbScale
 70
     0
300
1:4
140
1.0
141
4.0
290
     0
  0
SCALE
  5
4B
102
{ACAD_REACTORS
330
47
102
}
330
47
100
AcDbScale
 70
     0
300
1:5
140
1.0
141
5.0
290
     0
  0
SCALE
  5
4C
102
{ACAD_REACTORS
330
47
102
}
330
47
100
AcDbScale
 70
     0
300
1:8
140
1.0
141
8.0
290
     0
  0
SCALE
  5
4D
102
{ACAD_REACTORS
330
47
102
}
330
47
100
AcDbScale
 70
     0
300
1:10
140
1.0
141
10.0
290
     0
  0
SCALE
  5
4E
102
{ACAD_REACTORS
330
47
102
}
330
47
100
AcDbScale
 70
     0
300
1:16
140
1.0
141
16.0
290
     0
  0
SCALE
  5
4F
102
{ACAD_REACTORS
330
47
102
}
330
47
100
AcDbScale
 70
     0
300
1:20
140
1.0
141
20.0
290
     0
  0
SCALE
  5
50
102
{ACAD_REACTORS
330
47
102
}
330
47
100
AcDbScale
 70
     0
300
1:30
140
1.0
141
30.0
290
     0
  0
SCALE
  5
51
102
{ACAD_REACTORS
330
47
102
}
330
47
100
AcDbScale
 70
     0
300
1:40
140
1.0
141
40.0
290
     0
  0
SCALE
  5
52
102
{ACAD_REACTORS
330
47
102
}
330
47
100
AcDbScale
 70
     0
300
1:50
140
1.0
141
50.0
290
     0
  0
SCALE
  5
53
102
{ACAD_REACTORS
330
47
102
}
330
47
100
AcDbScale
 70
     0
300
1:100
140
1.0
141
100.0
290
     0
  0
SCALE
  5
54
102
{ACAD_REACTORS
330
47
102
}
330
47
100
AcDbScale
 70
     0
300
2:1
140
2.0
141
1.0
290
     0
  0
SCALE
  5
55
102
{ACAD_REACTORS
330
47
102
}
330
47
100
AcDbScale
 70
     0
300
4:1
140
4.0
141
1.0
290
     0
  0
SCALE
  5
56
102
{ACAD_REACTORS
330
47
102
}
330
47
100
AcDbScale
 70
     0
300
8:1
140
8.0
141
1.0
290
     0
  0
SCALE
  5
57
102
{ACAD_REACTORS
330
47
102
}
330
47
100
AcDbScale
 70
     0
300
10:1
140
10.0
141
1.0
290
     0
  0
SCALE
  5
58
102
{ACAD_REACTORS
330
47
102
}
330
47
100
AcDbScale
 70
     0
300
100:1
140
100.0
141
1.0
290
     0
  0
SCALE
  5
59
102
{ACAD_REACTORS
330
47
102
}
330
47
100
AcDbScale
 70
     0
300
1/128" = 1'-0"
140
0.0078125
141
12.0
290
     0
  0
SCALE
  5
5A
102
{ACAD_REACTORS
330
47
102
}
330
47
100
AcDbScale
 70
     0
300
1/64" = 1'-0"
140
0.015625
141
12.0
290
     0
  0
SCALE
  5
5B
102
{ACAD_REACTORS
330
47
102
}
330
47
100
AcDbScale
 70
     0
300
1/32" = 1'-0"
140
0.03125
141
12.0
290
     0
  0
SCALE
  5
5C
102
{ACAD_REACTORS
330
47
102
}
330
47
100
AcDbScale
 70
     0
300
1/16" = 1'-0"
140
0.0625
141
12.0
290
     0
  0
SCALE
  5
5D
102
{ACAD_REACTORS
330
47
102
}
330
47
100
AcDbScale
 70
     0
300
3/32" = 1'-0"
140
0.09375
141
12.0
290
     0
  0
SCALE
  5
5E
102
{ACAD_REACTORS
330
47
102
}
330
47
100
AcDbScale
 70
     0
300
1/8" = 1'-0"
140
0.125
141
12.0
290
     0
  0
SCALE
  5
5F
102
{ACAD_REACTORS
330
47
102
}
330
47
100
AcDbScale
 70
     0
300
3/16" = 1'-0"
140
0.1875
141
12.0
290
     0
  0
SCALE
  5
60
102
{ACAD_REACTORS
330
47
102
}
330
47
100
AcDbScale
 70
     0
300
1/4" = 1'-0"
140
0.25
141
12.0
290
     0
  0
SCALE
  5
61
102
{ACAD_REACTORS
330
47
102
}
330
47
100
AcDbScale
 70
     0
300
3/8" = 1'-0"
140
0.375
141
12.0
290
     0
  0
SCALE
  5
62
102
{ACAD_REACTORS
330
47
102
}
330
47
100
AcDbScale
 70
     0
300
1/2" = 1'-0"
140
0.5
141
12.0
290
     0
  0
SCALE
  5
63
102
{ACAD_REACTORS
330
47
102
}
330
47
100
AcDbScale
 70
     0
300
3/4" = 1'-0"
140
0.75
141
12.0
290
     0
  0
SCALE
  5
64
102
{ACAD_REACTORS
330
47
102
}
330
47
100
AcDbScale
 70
     0
300
1" = 1'-0"
140
1.0
141
12.0
290
     0
  0
SCALE
  5
65
102
{ACAD_REACTORS
330
47
102
}
330
47
100
AcDbScale
 70
     0
300
1-1/2" = 1'-0"
140
1.5
141
12.0
290
     0
  0
SCALE
  5
66
102
{ACAD_REACTORS
330
47
102
}
330
47
100
AcDbScale
 70
     0
300
3" = 1'-0"
140
3.0
141
12.0
290
     0
  0
SCALE
  5
67
102
{ACAD_REACTORS
330
47
102
}
330
47
100
AcDbScale
 70
     0
300
6" = 1'-0"
140
6.0
141
12.0
290
     0
  0
SCALE
  5
68
102
{ACAD_REACTORS
330
47
102
}
330
47
100
AcDbScale
 70
     0
300
1'-0" = 1'-0"
140
12.0
141
12.0
290
     0
  0
ENDSEC
  0
EOF
